# Tiled2Unity generated file. Do not modify by hand.
# Wavefront file for 'Dark_Forest_mesh_0003.obj'

# Vertices (Count = 384)
v -1280 -320 0
v -1296 -320 0
v -1296 -304 0
v -1280 -304 0
v -1296 -320 0
v -1312 -320 0
v -1312 -304 0
v -1296 -304 0
v -1312 -320 0
v -1328 -320 0
v -1328 -304 0
v -1312 -304 0
v -1280 -336 0
v -1296 -336 0
v -1296 -320 0
v -1280 -320 0
v -1296 -336 0
v -1312 -336 0
v -1312 -320 0
v -1296 -320 0
v -1312 -336 0
v -1328 -336 0
v -1328 -320 0
v -1312 -320 0
v -592 -352 0
v -608 -352 0
v -608 -336 0
v -592 -336 0
v -608 -352 0
v -624 -352 0
v -624 -336 0
v -608 -336 0
v -624 -352 0
v -640 -352 0
v -640 -336 0
v -624 -336 0
v -1104 -352 0
v -1120 -352 0
v -1120 -336 0
v -1104 -336 0
v -1120 -352 0
v -1136 -352 0
v -1136 -336 0
v -1120 -336 0
v -1136 -352 0
v -1152 -352 0
v -1152 -336 0
v -1136 -336 0
v -96 -368 0
v -112 -368 0
v -112 -352 0
v -96 -352 0
v -112 -368 0
v -128 -368 0
v -128 -352 0
v -112 -352 0
v -128 -368 0
v -144 -368 0
v -144 -352 0
v -128 -352 0
v -592 -368 0
v -608 -368 0
v -608 -352 0
v -592 -352 0
v -608 -368 0
v -624 -368 0
v -624 -352 0
v -608 -352 0
v -624 -368 0
v -640 -368 0
v -640 -352 0
v -624 -352 0
v -1104 -368 0
v -1120 -368 0
v -1120 -352 0
v -1104 -352 0
v -1120 -368 0
v -1136 -368 0
v -1136 -352 0
v -1120 -352 0
v -1136 -368 0
v -1152 -368 0
v -1152 -352 0
v -1136 -352 0
v -1376 -368 0
v -1392 -368 0
v -1392 -352 0
v -1376 -352 0
v -1392 -368 0
v -1408 -368 0
v -1408 -352 0
v -1392 -352 0
v -1408 -368 0
v -1424 -368 0
v -1424 -352 0
v -1408 -352 0
v -96 -384 0
v -112 -384 0
v -112 -368 0
v -96 -368 0
v -112 -384 0
v -128 -384 0
v -128 -368 0
v -112 -368 0
v -128 -384 0
v -144 -384 0
v -144 -368 0
v -128 -368 0
v -496 -384 0
v -512 -384 0
v -512 -368 0
v -496 -368 0
v -512 -384 0
v -528 -384 0
v -528 -368 0
v -512 -368 0
v -528 -384 0
v -544 -384 0
v -544 -368 0
v -528 -368 0
v -992 -384 0
v -1008 -384 0
v -1008 -368 0
v -992 -368 0
v -1008 -384 0
v -1024 -384 0
v -1024 -368 0
v -1008 -368 0
v -1024 -384 0
v -1040 -384 0
v -1040 -368 0
v -1024 -368 0
v -1376 -384 0
v -1392 -384 0
v -1392 -368 0
v -1376 -368 0
v -1392 -384 0
v -1408 -384 0
v -1408 -368 0
v -1392 -368 0
v -1408 -384 0
v -1424 -384 0
v -1424 -368 0
v -1408 -368 0
v -320 -400 0
v -336 -400 0
v -336 -384 0
v -320 -384 0
v -336 -400 0
v -352 -400 0
v -352 -384 0
v -336 -384 0
v -352 -400 0
v -368 -400 0
v -368 -384 0
v -352 -384 0
v -496 -400 0
v -512 -400 0
v -512 -384 0
v -496 -384 0
v -512 -400 0
v -528 -400 0
v -528 -384 0
v -512 -384 0
v -528 -400 0
v -544 -400 0
v -544 -384 0
v -528 -384 0
v -704 -400 0
v -720 -400 0
v -720 -384 0
v -704 -384 0
v -720 -400 0
v -736 -400 0
v -736 -384 0
v -720 -384 0
v -736 -400 0
v -752 -400 0
v -752 -384 0
v -736 -384 0
v -880 -400 0
v -896 -400 0
v -896 -384 0
v -880 -384 0
v -896 -400 0
v -912 -400 0
v -912 -384 0
v -896 -384 0
v -912 -400 0
v -928 -400 0
v -928 -384 0
v -912 -384 0
v -992 -400 0
v -1008 -400 0
v -1008 -384 0
v -992 -384 0
v -1008 -400 0
v -1024 -400 0
v -1024 -384 0
v -1008 -384 0
v -1024 -400 0
v -1040 -400 0
v -1040 -384 0
v -1024 -384 0
v -1200 -400 0
v -1216 -400 0
v -1216 -384 0
v -1200 -384 0
v -1216 -400 0
v -1232 -400 0
v -1232 -384 0
v -1216 -384 0
v -1232 -400 0
v -1248 -400 0
v -1248 -384 0
v -1232 -384 0
v -192 -416 0
v -208 -416 0
v -208 -400 0
v -192 -400 0
v -208 -416 0
v -224 -416 0
v -224 -400 0
v -208 -400 0
v -224 -416 0
v -240 -416 0
v -240 -400 0
v -224 -400 0
v -320 -416 0
v -336 -416 0
v -336 -400 0
v -320 -400 0
v -336 -416 0
v -352 -416 0
v -352 -400 0
v -336 -400 0
v -352 -416 0
v -368 -416 0
v -368 -400 0
v -352 -400 0
v -704 -416 0
v -720 -416 0
v -720 -400 0
v -704 -400 0
v -720 -416 0
v -736 -416 0
v -736 -400 0
v -720 -400 0
v -736 -416 0
v -752 -416 0
v -752 -400 0
v -736 -400 0
v -880 -416 0
v -896 -416 0
v -896 -400 0
v -880 -400 0
v -896 -416 0
v -912 -416 0
v -912 -400 0
v -896 -400 0
v -912 -416 0
v -928 -416 0
v -928 -400 0
v -912 -400 0
v -1200 -416 0
v -1216 -416 0
v -1216 -400 0
v -1200 -400 0
v -1216 -416 0
v -1232 -416 0
v -1232 -400 0
v -1216 -400 0
v -1232 -416 0
v -1248 -416 0
v -1248 -400 0
v -1232 -400 0
v -192 -432 0
v -208 -432 0
v -208 -416 0
v -192 -416 0
v -208 -432 0
v -224 -432 0
v -224 -416 0
v -208 -416 0
v -224 -432 0
v -240 -432 0
v -240 -416 0
v -224 -416 0
v -656 -432 0
v -672 -432 0
v -672 -416 0
v -656 -416 0
v -672 -432 0
v -688 -432 0
v -688 -416 0
v -672 -416 0
v -688 -432 0
v -704 -432 0
v -704 -416 0
v -688 -416 0
v -656 -448 0
v -672 -448 0
v -672 -432 0
v -656 -432 0
v -672 -448 0
v -688 -448 0
v -688 -432 0
v -672 -432 0
v -688 -448 0
v -704 -448 0
v -704 -432 0
v -688 -432 0
v -400 -464 0
v -416 -464 0
v -416 -448 0
v -400 -448 0
v -416 -464 0
v -432 -464 0
v -432 -448 0
v -416 -448 0
v -432 -464 0
v -448 -464 0
v -448 -448 0
v -432 -448 0
v -784 -464 0
v -800 -464 0
v -800 -448 0
v -784 -448 0
v -800 -464 0
v -816 -464 0
v -816 -448 0
v -800 -448 0
v -816 -464 0
v -832 -464 0
v -832 -448 0
v -816 -448 0
v -944 -464 0
v -960 -464 0
v -960 -448 0
v -944 -448 0
v -960 -464 0
v -976 -464 0
v -976 -448 0
v -960 -448 0
v -976 -464 0
v -992 -464 0
v -992 -448 0
v -976 -448 0
v -400 -480 0
v -416 -480 0
v -416 -464 0
v -400 -464 0
v -416 -480 0
v -432 -480 0
v -432 -464 0
v -416 -464 0
v -432 -480 0
v -448 -480 0
v -448 -464 0
v -432 -464 0
v -784 -480 0
v -800 -480 0
v -800 -464 0
v -784 -464 0
v -800 -480 0
v -816 -480 0
v -816 -464 0
v -800 -464 0
v -816 -480 0
v -832 -480 0
v -832 -464 0
v -816 -464 0
v -944 -480 0
v -960 -480 0
v -960 -464 0
v -944 -464 0
v -960 -480 0
v -976 -480 0
v -976 -464 0
v -960 -464 0
v -976 -480 0
v -992 -480 0
v -992 -464 0
v -976 -464 0

# Texture cooridinates (Count = 12)
vt 0 0.9777778
vt 0.04545455 0.9777778
vt 0.04545455 1
vt 0 1
vt 0.09090909 0.9777778
vt 0.09090909 1
vt 0.1363636 0.9777778
vt 0.1363636 1
vt 0 0.9555556
vt 0.04545455 0.9555556
vt 0.09090909 0.9555556
vt 0.1363636 0.9555556

# Normal
vn 0 0 -1

# Mesh description
g Dark_Forest_mesh_0003

# Faces
f 1/1/1 2/2/1 3/3/1 4/4/1
f 5/2/1 6/5/1 7/6/1 8/3/1
f 9/5/1 10/7/1 11/8/1 12/6/1
f 13/9/1 14/10/1 15/2/1 16/1/1
f 17/10/1 18/11/1 19/5/1 20/2/1
f 21/11/1 22/12/1 23/7/1 24/5/1
f 25/1/1 26/2/1 27/3/1 28/4/1
f 29/2/1 30/5/1 31/6/1 32/3/1
f 33/5/1 34/7/1 35/8/1 36/6/1
f 37/1/1 38/2/1 39/3/1 40/4/1
f 41/2/1 42/5/1 43/6/1 44/3/1
f 45/5/1 46/7/1 47/8/1 48/6/1
f 49/1/1 50/2/1 51/3/1 52/4/1
f 53/2/1 54/5/1 55/6/1 56/3/1
f 57/5/1 58/7/1 59/8/1 60/6/1
f 61/9/1 62/10/1 63/2/1 64/1/1
f 65/10/1 66/11/1 67/5/1 68/2/1
f 69/11/1 70/12/1 71/7/1 72/5/1
f 73/9/1 74/10/1 75/2/1 76/1/1
f 77/10/1 78/11/1 79/5/1 80/2/1
f 81/11/1 82/12/1 83/7/1 84/5/1
f 85/1/1 86/2/1 87/3/1 88/4/1
f 89/2/1 90/5/1 91/6/1 92/3/1
f 93/5/1 94/7/1 95/8/1 96/6/1
f 97/9/1 98/10/1 99/2/1 100/1/1
f 101/10/1 102/11/1 103/5/1 104/2/1
f 105/11/1 106/12/1 107/7/1 108/5/1
f 109/1/1 110/2/1 111/3/1 112/4/1
f 113/2/1 114/5/1 115/6/1 116/3/1
f 117/5/1 118/7/1 119/8/1 120/6/1
f 121/1/1 122/2/1 123/3/1 124/4/1
f 125/2/1 126/5/1 127/6/1 128/3/1
f 129/5/1 130/7/1 131/8/1 132/6/1
f 133/9/1 134/10/1 135/2/1 136/1/1
f 137/10/1 138/11/1 139/5/1 140/2/1
f 141/11/1 142/12/1 143/7/1 144/5/1
f 145/1/1 146/2/1 147/3/1 148/4/1
f 149/2/1 150/5/1 151/6/1 152/3/1
f 153/5/1 154/7/1 155/8/1 156/6/1
f 157/9/1 158/10/1 159/2/1 160/1/1
f 161/10/1 162/11/1 163/5/1 164/2/1
f 165/11/1 166/12/1 167/7/1 168/5/1
f 169/1/1 170/2/1 171/3/1 172/4/1
f 173/2/1 174/5/1 175/6/1 176/3/1
f 177/5/1 178/7/1 179/8/1 180/6/1
f 181/1/1 182/2/1 183/3/1 184/4/1
f 185/2/1 186/5/1 187/6/1 188/3/1
f 189/5/1 190/7/1 191/8/1 192/6/1
f 193/9/1 194/10/1 195/2/1 196/1/1
f 197/10/1 198/11/1 199/5/1 200/2/1
f 201/11/1 202/12/1 203/7/1 204/5/1
f 205/1/1 206/2/1 207/3/1 208/4/1
f 209/2/1 210/5/1 211/6/1 212/3/1
f 213/5/1 214/7/1 215/8/1 216/6/1
f 217/1/1 218/2/1 219/3/1 220/4/1
f 221/2/1 222/5/1 223/6/1 224/3/1
f 225/5/1 226/7/1 227/8/1 228/6/1
f 229/9/1 230/10/1 231/2/1 232/1/1
f 233/10/1 234/11/1 235/5/1 236/2/1
f 237/11/1 238/12/1 239/7/1 240/5/1
f 241/9/1 242/10/1 243/2/1 244/1/1
f 245/10/1 246/11/1 247/5/1 248/2/1
f 249/11/1 250/12/1 251/7/1 252/5/1
f 253/9/1 254/10/1 255/2/1 256/1/1
f 257/10/1 258/11/1 259/5/1 260/2/1
f 261/11/1 262/12/1 263/7/1 264/5/1
f 265/9/1 266/10/1 267/2/1 268/1/1
f 269/10/1 270/11/1 271/5/1 272/2/1
f 273/11/1 274/12/1 275/7/1 276/5/1
f 277/9/1 278/10/1 279/2/1 280/1/1
f 281/10/1 282/11/1 283/5/1 284/2/1
f 285/11/1 286/12/1 287/7/1 288/5/1
f 289/1/1 290/2/1 291/3/1 292/4/1
f 293/2/1 294/5/1 295/6/1 296/3/1
f 297/5/1 298/7/1 299/8/1 300/6/1
f 301/9/1 302/10/1 303/2/1 304/1/1
f 305/10/1 306/11/1 307/5/1 308/2/1
f 309/11/1 310/12/1 311/7/1 312/5/1
f 313/1/1 314/2/1 315/3/1 316/4/1
f 317/2/1 318/5/1 319/6/1 320/3/1
f 321/5/1 322/7/1 323/8/1 324/6/1
f 325/1/1 326/2/1 327/3/1 328/4/1
f 329/2/1 330/5/1 331/6/1 332/3/1
f 333/5/1 334/7/1 335/8/1 336/6/1
f 337/1/1 338/2/1 339/3/1 340/4/1
f 341/2/1 342/5/1 343/6/1 344/3/1
f 345/5/1 346/7/1 347/8/1 348/6/1
f 349/9/1 350/10/1 351/2/1 352/1/1
f 353/10/1 354/11/1 355/5/1 356/2/1
f 357/11/1 358/12/1 359/7/1 360/5/1
f 361/9/1 362/10/1 363/2/1 364/1/1
f 365/10/1 366/11/1 367/5/1 368/2/1
f 369/11/1 370/12/1 371/7/1 372/5/1
f 373/9/1 374/10/1 375/2/1 376/1/1
f 377/10/1 378/11/1 379/5/1 380/2/1
f 381/11/1 382/12/1 383/7/1 384/5/1

