# Tiled2Unity generated file. Do not modify by hand.
# Wavefront file for 'Dark_Forest_mesh_0005.obj'

# Vertices (Count = 708)
v -288 -16 0
v -304 -16 0
v -304 0 0
v -288 0 0
v -304 -16 0
v -320 -16 0
v -320 0 0
v -304 0 0
v -320 -16 0
v -336 -16 0
v -336 0 0
v -320 0 0
v -336 -16 0
v -352 -16 0
v -352 0 0
v -336 0 0
v -352 -16 0
v -368 -16 0
v -368 0 0
v -352 0 0
v -464 -16 0
v -480 -16 0
v -480 0 0
v -464 0 0
v -480 -16 0
v -496 -16 0
v -496 0 0
v -480 0 0
v -496 -16 0
v -512 -16 0
v -512 0 0
v -496 0 0
v -512 -16 0
v -528 -16 0
v -528 0 0
v -512 0 0
v -528 -16 0
v -544 -16 0
v -544 0 0
v -528 0 0
v -704 -16 0
v -720 -16 0
v -720 0 0
v -704 0 0
v -720 -16 0
v -736 -16 0
v -736 0 0
v -720 0 0
v -736 -16 0
v -752 -16 0
v -752 0 0
v -736 0 0
v -752 -16 0
v -768 -16 0
v -768 0 0
v -752 0 0
v -768 -16 0
v -784 -16 0
v -784 0 0
v -768 0 0
v -864 -16 0
v -880 -16 0
v -880 0 0
v -864 0 0
v -880 -16 0
v -896 -16 0
v -896 0 0
v -880 0 0
v -896 -16 0
v -912 -16 0
v -912 0 0
v -896 0 0
v -912 -16 0
v -928 -16 0
v -928 0 0
v -912 0 0
v -928 -16 0
v -944 -16 0
v -944 0 0
v -928 0 0
v -1040 -16 0
v -1056 -16 0
v -1056 0 0
v -1040 0 0
v -1056 -16 0
v -1072 -16 0
v -1072 0 0
v -1056 0 0
v -1072 -16 0
v -1088 -16 0
v -1088 0 0
v -1072 0 0
v -1088 -16 0
v -1104 -16 0
v -1104 0 0
v -1088 0 0
v -1104 -16 0
v -1120 -16 0
v -1120 0 0
v -1104 0 0
v -1152 -16 0
v -1168 -16 0
v -1168 0 0
v -1152 0 0
v -1168 -16 0
v -1184 -16 0
v -1184 0 0
v -1168 0 0
v -1184 -16 0
v -1200 -16 0
v -1200 0 0
v -1184 0 0
v -1200 -16 0
v -1216 -16 0
v -1216 0 0
v -1200 0 0
v -1216 -16 0
v -1232 -16 0
v -1232 0 0
v -1216 0 0
v -1328 -16 0
v -1344 -16 0
v -1344 0 0
v -1328 0 0
v -1344 -16 0
v -1360 -16 0
v -1360 0 0
v -1344 0 0
v -1360 -16 0
v -1376 -16 0
v -1376 0 0
v -1360 0 0
v -1376 -16 0
v -1392 -16 0
v -1392 0 0
v -1376 0 0
v -1392 -16 0
v -1408 -16 0
v -1408 0 0
v -1392 0 0
v -288 -32 0
v -304 -32 0
v -304 -16 0
v -288 -16 0
v -304 -32 0
v -320 -32 0
v -320 -16 0
v -304 -16 0
v -320 -32 0
v -336 -32 0
v -336 -16 0
v -320 -16 0
v -336 -32 0
v -352 -32 0
v -352 -16 0
v -336 -16 0
v -352 -32 0
v -368 -32 0
v -368 -16 0
v -352 -16 0
v -464 -32 0
v -480 -32 0
v -480 -16 0
v -464 -16 0
v -480 -32 0
v -496 -32 0
v -496 -16 0
v -480 -16 0
v -496 -32 0
v -512 -32 0
v -512 -16 0
v -496 -16 0
v -512 -32 0
v -528 -32 0
v -528 -16 0
v -512 -16 0
v -528 -32 0
v -544 -32 0
v -544 -16 0
v -528 -16 0
v -704 -32 0
v -720 -32 0
v -720 -16 0
v -704 -16 0
v -720 -32 0
v -736 -32 0
v -736 -16 0
v -720 -16 0
v -736 -32 0
v -752 -32 0
v -752 -16 0
v -736 -16 0
v -752 -32 0
v -768 -32 0
v -768 -16 0
v -752 -16 0
v -768 -32 0
v -784 -32 0
v -784 -16 0
v -768 -16 0
v -864 -32 0
v -880 -32 0
v -880 -16 0
v -864 -16 0
v -880 -32 0
v -896 -32 0
v -896 -16 0
v -880 -16 0
v -896 -32 0
v -912 -32 0
v -912 -16 0
v -896 -16 0
v -912 -32 0
v -928 -32 0
v -928 -16 0
v -912 -16 0
v -928 -32 0
v -944 -32 0
v -944 -16 0
v -928 -16 0
v -1040 -32 0
v -1056 -32 0
v -1056 -16 0
v -1040 -16 0
v -1056 -32 0
v -1072 -32 0
v -1072 -16 0
v -1056 -16 0
v -1072 -32 0
v -1088 -32 0
v -1088 -16 0
v -1072 -16 0
v -1088 -32 0
v -1104 -32 0
v -1104 -16 0
v -1088 -16 0
v -1104 -32 0
v -1120 -32 0
v -1120 -16 0
v -1104 -16 0
v -1152 -32 0
v -1168 -32 0
v -1168 -16 0
v -1152 -16 0
v -1168 -32 0
v -1184 -32 0
v -1184 -16 0
v -1168 -16 0
v -1184 -32 0
v -1200 -32 0
v -1200 -16 0
v -1184 -16 0
v -1200 -32 0
v -1216 -32 0
v -1216 -16 0
v -1200 -16 0
v -1216 -32 0
v -1232 -32 0
v -1232 -16 0
v -1216 -16 0
v -1328 -32 0
v -1344 -32 0
v -1344 -16 0
v -1328 -16 0
v -1344 -32 0
v -1360 -32 0
v -1360 -16 0
v -1344 -16 0
v -1360 -32 0
v -1376 -32 0
v -1376 -16 0
v -1360 -16 0
v -1376 -32 0
v -1392 -32 0
v -1392 -16 0
v -1376 -16 0
v -1392 -32 0
v -1408 -32 0
v -1408 -16 0
v -1392 -16 0
v -288 -48 0
v -304 -48 0
v -304 -32 0
v -288 -32 0
v -304 -48 0
v -320 -48 0
v -320 -32 0
v -304 -32 0
v -320 -48 0
v -336 -48 0
v -336 -32 0
v -320 -32 0
v -336 -48 0
v -352 -48 0
v -352 -32 0
v -336 -32 0
v -352 -48 0
v -368 -48 0
v -368 -32 0
v -352 -32 0
v -464 -48 0
v -480 -48 0
v -480 -32 0
v -464 -32 0
v -480 -48 0
v -496 -48 0
v -496 -32 0
v -480 -32 0
v -496 -48 0
v -512 -48 0
v -512 -32 0
v -496 -32 0
v -512 -48 0
v -528 -48 0
v -528 -32 0
v -512 -32 0
v -528 -48 0
v -544 -48 0
v -544 -32 0
v -528 -32 0
v -704 -48 0
v -720 -48 0
v -720 -32 0
v -704 -32 0
v -720 -48 0
v -736 -48 0
v -736 -32 0
v -720 -32 0
v -736 -48 0
v -752 -48 0
v -752 -32 0
v -736 -32 0
v -752 -48 0
v -768 -48 0
v -768 -32 0
v -752 -32 0
v -768 -48 0
v -784 -48 0
v -784 -32 0
v -768 -32 0
v -864 -48 0
v -880 -48 0
v -880 -32 0
v -864 -32 0
v -880 -48 0
v -896 -48 0
v -896 -32 0
v -880 -32 0
v -896 -48 0
v -912 -48 0
v -912 -32 0
v -896 -32 0
v -912 -48 0
v -928 -48 0
v -928 -32 0
v -912 -32 0
v -928 -48 0
v -944 -48 0
v -944 -32 0
v -928 -32 0
v -1040 -48 0
v -1056 -48 0
v -1056 -32 0
v -1040 -32 0
v -1056 -48 0
v -1072 -48 0
v -1072 -32 0
v -1056 -32 0
v -1072 -48 0
v -1088 -48 0
v -1088 -32 0
v -1072 -32 0
v -1088 -48 0
v -1104 -48 0
v -1104 -32 0
v -1088 -32 0
v -1104 -48 0
v -1120 -48 0
v -1120 -32 0
v -1104 -32 0
v -1152 -48 0
v -1168 -48 0
v -1168 -32 0
v -1152 -32 0
v -1168 -48 0
v -1184 -48 0
v -1184 -32 0
v -1168 -32 0
v -1184 -48 0
v -1200 -48 0
v -1200 -32 0
v -1184 -32 0
v -1200 -48 0
v -1216 -48 0
v -1216 -32 0
v -1200 -32 0
v -1216 -48 0
v -1232 -48 0
v -1232 -32 0
v -1216 -32 0
v -1328 -48 0
v -1344 -48 0
v -1344 -32 0
v -1328 -32 0
v -1344 -48 0
v -1360 -48 0
v -1360 -32 0
v -1344 -32 0
v -1360 -48 0
v -1376 -48 0
v -1376 -32 0
v -1360 -32 0
v -1376 -48 0
v -1392 -48 0
v -1392 -32 0
v -1376 -32 0
v -1392 -48 0
v -1408 -48 0
v -1408 -32 0
v -1392 -32 0
v -288 -64 0
v -304 -64 0
v -304 -48 0
v -288 -48 0
v -304 -64 0
v -320 -64 0
v -320 -48 0
v -304 -48 0
v -320 -64 0
v -336 -64 0
v -336 -48 0
v -320 -48 0
v -336 -64 0
v -352 -64 0
v -352 -48 0
v -336 -48 0
v -352 -64 0
v -368 -64 0
v -368 -48 0
v -352 -48 0
v -464 -64 0
v -480 -64 0
v -480 -48 0
v -464 -48 0
v -480 -64 0
v -496 -64 0
v -496 -48 0
v -480 -48 0
v -496 -64 0
v -512 -64 0
v -512 -48 0
v -496 -48 0
v -512 -64 0
v -528 -64 0
v -528 -48 0
v -512 -48 0
v -528 -64 0
v -544 -64 0
v -544 -48 0
v -528 -48 0
v -704 -64 0
v -720 -64 0
v -720 -48 0
v -704 -48 0
v -720 -64 0
v -736 -64 0
v -736 -48 0
v -720 -48 0
v -736 -64 0
v -752 -64 0
v -752 -48 0
v -736 -48 0
v -752 -64 0
v -768 -64 0
v -768 -48 0
v -752 -48 0
v -768 -64 0
v -784 -64 0
v -784 -48 0
v -768 -48 0
v -1040 -64 0
v -1056 -64 0
v -1056 -48 0
v -1040 -48 0
v -1056 -64 0
v -1072 -64 0
v -1072 -48 0
v -1056 -48 0
v -1072 -64 0
v -1088 -64 0
v -1088 -48 0
v -1072 -48 0
v -1088 -64 0
v -1104 -64 0
v -1104 -48 0
v -1088 -48 0
v -1104 -64 0
v -1120 -64 0
v -1120 -48 0
v -1104 -48 0
v -1328 -64 0
v -1344 -64 0
v -1344 -48 0
v -1328 -48 0
v -1344 -64 0
v -1360 -64 0
v -1360 -48 0
v -1344 -48 0
v -1360 -64 0
v -1376 -64 0
v -1376 -48 0
v -1360 -48 0
v -1376 -64 0
v -1392 -64 0
v -1392 -48 0
v -1376 -48 0
v -1392 -64 0
v -1408 -64 0
v -1408 -48 0
v -1392 -48 0
v -288 -80 0
v -304 -80 0
v -304 -64 0
v -288 -64 0
v -304 -80 0
v -320 -80 0
v -320 -64 0
v -304 -64 0
v -320 -80 0
v -336 -80 0
v -336 -64 0
v -320 -64 0
v -336 -80 0
v -352 -80 0
v -352 -64 0
v -336 -64 0
v -352 -80 0
v -368 -80 0
v -368 -64 0
v -352 -64 0
v -464 -80 0
v -480 -80 0
v -480 -64 0
v -464 -64 0
v -480 -80 0
v -496 -80 0
v -496 -64 0
v -480 -64 0
v -496 -80 0
v -512 -80 0
v -512 -64 0
v -496 -64 0
v -512 -80 0
v -528 -80 0
v -528 -64 0
v -512 -64 0
v -528 -80 0
v -544 -80 0
v -544 -64 0
v -528 -64 0
v -704 -80 0
v -720 -80 0
v -720 -64 0
v -704 -64 0
v -720 -80 0
v -736 -80 0
v -736 -64 0
v -720 -64 0
v -736 -80 0
v -752 -80 0
v -752 -64 0
v -736 -64 0
v -752 -80 0
v -768 -80 0
v -768 -64 0
v -752 -64 0
v -768 -80 0
v -784 -80 0
v -784 -64 0
v -768 -64 0
v -1440 -304 0
v -1456 -304 0
v -1456 -288 0
v -1440 -288 0
v -1456 -304 0
v -1472 -304 0
v -1472 -288 0
v -1456 -288 0
v -1472 -304 0
v -1488 -304 0
v -1488 -288 0
v -1472 -288 0
v -1488 -304 0
v -1504 -304 0
v -1504 -288 0
v -1488 -288 0
v -1440 -320 0
v -1456 -320 0
v -1456 -304 0
v -1440 -304 0
v -1456 -320 0
v -1472 -320 0
v -1472 -304 0
v -1456 -304 0
v -1472 -320 0
v -1488 -320 0
v -1488 -304 0
v -1472 -304 0
v -1488 -320 0
v -1504 -320 0
v -1504 -304 0
v -1488 -304 0
v -1552 -320 0
v -1568 -320 0
v -1568 -304 0
v -1552 -304 0
v -1568 -320 0
v -1584 -320 0
v -1584 -304 0
v -1568 -304 0
v -1584 -320 0
v -1600 -320 0
v -1600 -304 0
v -1584 -304 0
v -1440 -336 0
v -1456 -336 0
v -1456 -320 0
v -1440 -320 0
v -1456 -336 0
v -1472 -336 0
v -1472 -320 0
v -1456 -320 0
v -1472 -336 0
v -1488 -336 0
v -1488 -320 0
v -1472 -320 0
v -1488 -336 0
v -1504 -336 0
v -1504 -320 0
v -1488 -320 0
v -1552 -336 0
v -1568 -336 0
v -1568 -320 0
v -1552 -320 0
v -1568 -336 0
v -1584 -336 0
v -1584 -320 0
v -1568 -320 0
v -1584 -336 0
v -1600 -336 0
v -1600 -320 0
v -1584 -320 0
v -1440 -352 0
v -1456 -352 0
v -1456 -336 0
v -1440 -336 0
v -1456 -352 0
v -1472 -352 0
v -1472 -336 0
v -1456 -336 0
v -1472 -352 0
v -1488 -352 0
v -1488 -336 0
v -1472 -336 0
v -1488 -352 0
v -1504 -352 0
v -1504 -336 0
v -1488 -336 0
v -1552 -352 0
v -1568 -352 0
v -1568 -336 0
v -1552 -336 0
v -1568 -352 0
v -1584 -352 0
v -1584 -336 0
v -1568 -336 0
v -1584 -352 0
v -1600 -352 0
v -1600 -336 0
v -1584 -336 0
v -1440 -368 0
v -1456 -368 0
v -1456 -352 0
v -1440 -352 0
v -1456 -368 0
v -1472 -368 0
v -1472 -352 0
v -1456 -352 0
v -1472 -368 0
v -1488 -368 0
v -1488 -352 0
v -1472 -352 0
v -1488 -368 0
v -1504 -368 0
v -1504 -352 0
v -1488 -352 0
v -1552 -368 0
v -1568 -368 0
v -1568 -352 0
v -1552 -352 0
v -1568 -368 0
v -1584 -368 0
v -1584 -352 0
v -1568 -352 0
v -1584 -368 0
v -1600 -368 0
v -1600 -352 0
v -1584 -352 0

# Texture cooridinates (Count = 86)
vt 0.7727273 0.1555555
vt 0.8181818 0.1555555
vt 0.8181818 0.1777778
vt 0.7727273 0.1777778
vt 0.8636364 0.1555555
vt 0.8636364 0.1777778
vt 0.9090909 0.1555555
vt 0.9090909 0.1777778
vt 0.9545454 0.1555555
vt 0.9545454 0.1777778
vt 1 0.1555555
vt 1 0.1777778
vt 0.7727273 0.1111111
vt 0.8181818 0.1111111
vt 0.8181818 0.1333333
vt 0.7727273 0.1333333
vt 0.8636364 0.1111111
vt 0.8636364 0.1333333
vt 0.9090909 0.1111111
vt 0.9090909 0.1333333
vt 0.9545454 0.1111111
vt 0.9545454 0.1333333
vt 1 0.1111111
vt 1 0.1333333
vt 0.7727273 0.08888888
vt 0.8181818 0.08888888
vt 0.8636364 0.08888888
vt 0.9090909 0.08888888
vt 0.9545454 0.08888888
vt 1 0.08888888
vt 0.7727273 0.06666666
vt 0.8181818 0.06666666
vt 0.8636364 0.06666666
vt 0.9090909 0.06666666
vt 0.9545454 0.06666666
vt 1 0.06666666
vt 0.4545455 0.7111111
vt 0.5 0.7111111
vt 0.5 0.7333333
vt 0.4545455 0.7333333
vt 0.5454546 0.7111111
vt 0.5454546 0.7333333
vt 0.5909091 0.7111111
vt 0.5909091 0.7333333
vt 0.6363636 0.7111111
vt 0.6363636 0.7333333
vt 0.4545455 0.6888889
vt 0.5 0.6888889
vt 0.5454546 0.6888889
vt 0.5909091 0.6888889
vt 0.6363636 0.6888889
vt 0.7727273 0.6888889
vt 0.8181818 0.6888889
vt 0.8181818 0.7111111
vt 0.7727273 0.7111111
vt 0.8636364 0.6888889
vt 0.8636364 0.7111111
vt 0.9090909 0.6888889
vt 0.9090909 0.7111111
vt 0.4545455 0.6666666
vt 0.5 0.6666666
vt 0.5454546 0.6666666
vt 0.5909091 0.6666666
vt 0.6363636 0.6666666
vt 0.7727273 0.6666666
vt 0.8181818 0.6666666
vt 0.8636364 0.6666666
vt 0.9090909 0.6666666
vt 0.4545455 0.6444445
vt 0.5 0.6444445
vt 0.5454546 0.6444445
vt 0.5909091 0.6444445
vt 0.6363636 0.6444445
vt 0.7727273 0.6444445
vt 0.8181818 0.6444445
vt 0.8636364 0.6444445
vt 0.9090909 0.6444445
vt 0.4545455 0.6222222
vt 0.5 0.6222222
vt 0.5454546 0.6222222
vt 0.5909091 0.6222222
vt 0.6363636 0.6222222
vt 0.7727273 0.6222222
vt 0.8181818 0.6222222
vt 0.8636364 0.6222222
vt 0.9090909 0.6222222

# Normal
vn 0 0 -1

# Mesh description
g Dark_Forest_mesh_0005

# Faces
f 1/1/1 2/2/1 3/3/1 4/4/1
f 5/2/1 6/5/1 7/6/1 8/3/1
f 9/5/1 10/7/1 11/8/1 12/6/1
f 13/7/1 14/9/1 15/10/1 16/8/1
f 17/9/1 18/11/1 19/12/1 20/10/1
f 21/1/1 22/2/1 23/3/1 24/4/1
f 25/2/1 26/5/1 27/6/1 28/3/1
f 29/5/1 30/7/1 31/8/1 32/6/1
f 33/7/1 34/9/1 35/10/1 36/8/1
f 37/9/1 38/11/1 39/12/1 40/10/1
f 41/1/1 42/2/1 43/3/1 44/4/1
f 45/2/1 46/5/1 47/6/1 48/3/1
f 49/5/1 50/7/1 51/8/1 52/6/1
f 53/7/1 54/9/1 55/10/1 56/8/1
f 57/9/1 58/11/1 59/12/1 60/10/1
f 61/13/1 62/14/1 63/15/1 64/16/1
f 65/14/1 66/17/1 67/18/1 68/15/1
f 69/17/1 70/19/1 71/20/1 72/18/1
f 73/19/1 74/21/1 75/22/1 76/20/1
f 77/21/1 78/23/1 79/24/1 80/22/1
f 81/16/1 82/15/1 83/2/1 84/1/1
f 85/15/1 86/18/1 87/5/1 88/2/1
f 89/18/1 90/20/1 91/7/1 92/5/1
f 93/20/1 94/22/1 95/9/1 96/7/1
f 97/22/1 98/24/1 99/11/1 100/9/1
f 101/13/1 102/14/1 103/15/1 104/16/1
f 105/14/1 106/17/1 107/18/1 108/15/1
f 109/17/1 110/19/1 111/20/1 112/18/1
f 113/19/1 114/21/1 115/22/1 116/20/1
f 117/21/1 118/23/1 119/24/1 120/22/1
f 121/16/1 122/15/1 123/2/1 124/1/1
f 125/15/1 126/18/1 127/5/1 128/2/1
f 129/18/1 130/20/1 131/7/1 132/5/1
f 133/20/1 134/22/1 135/9/1 136/7/1
f 137/22/1 138/24/1 139/11/1 140/9/1
f 141/16/1 142/15/1 143/2/1 144/1/1
f 145/15/1 146/18/1 147/5/1 148/2/1
f 149/18/1 150/20/1 151/7/1 152/5/1
f 153/20/1 154/22/1 155/9/1 156/7/1
f 157/22/1 158/24/1 159/11/1 160/9/1
f 161/16/1 162/15/1 163/2/1 164/1/1
f 165/15/1 166/18/1 167/5/1 168/2/1
f 169/18/1 170/20/1 171/7/1 172/5/1
f 173/20/1 174/22/1 175/9/1 176/7/1
f 177/22/1 178/24/1 179/11/1 180/9/1
f 181/16/1 182/15/1 183/2/1 184/1/1
f 185/15/1 186/18/1 187/5/1 188/2/1
f 189/18/1 190/20/1 191/7/1 192/5/1
f 193/20/1 194/22/1 195/9/1 196/7/1
f 197/22/1 198/24/1 199/11/1 200/9/1
f 201/25/1 202/26/1 203/14/1 204/13/1
f 205/26/1 206/27/1 207/17/1 208/14/1
f 209/27/1 210/28/1 211/19/1 212/17/1
f 213/28/1 214/29/1 215/21/1 216/19/1
f 217/29/1 218/30/1 219/23/1 220/21/1
f 221/13/1 222/14/1 223/15/1 224/16/1
f 225/14/1 226/17/1 227/18/1 228/15/1
f 229/17/1 230/19/1 231/20/1 232/18/1
f 233/19/1 234/21/1 235/22/1 236/20/1
f 237/21/1 238/23/1 239/24/1 240/22/1
f 241/25/1 242/26/1 243/14/1 244/13/1
f 245/26/1 246/27/1 247/17/1 248/14/1
f 249/27/1 250/28/1 251/19/1 252/17/1
f 253/28/1 254/29/1 255/21/1 256/19/1
f 257/29/1 258/30/1 259/23/1 260/21/1
f 261/13/1 262/14/1 263/15/1 264/16/1
f 265/14/1 266/17/1 267/18/1 268/15/1
f 269/17/1 270/19/1 271/20/1 272/18/1
f 273/19/1 274/21/1 275/22/1 276/20/1
f 277/21/1 278/23/1 279/24/1 280/22/1
f 281/13/1 282/14/1 283/15/1 284/16/1
f 285/14/1 286/17/1 287/18/1 288/15/1
f 289/17/1 290/19/1 291/20/1 292/18/1
f 293/19/1 294/21/1 295/22/1 296/20/1
f 297/21/1 298/23/1 299/24/1 300/22/1
f 301/13/1 302/14/1 303/15/1 304/16/1
f 305/14/1 306/17/1 307/18/1 308/15/1
f 309/17/1 310/19/1 311/20/1 312/18/1
f 313/19/1 314/21/1 315/22/1 316/20/1
f 317/21/1 318/23/1 319/24/1 320/22/1
f 321/13/1 322/14/1 323/15/1 324/16/1
f 325/14/1 326/17/1 327/18/1 328/15/1
f 329/17/1 330/19/1 331/20/1 332/18/1
f 333/19/1 334/21/1 335/22/1 336/20/1
f 337/21/1 338/23/1 339/24/1 340/22/1
f 341/31/1 342/32/1 343/26/1 344/25/1
f 345/32/1 346/33/1 347/27/1 348/26/1
f 349/33/1 350/34/1 351/28/1 352/27/1
f 353/34/1 354/35/1 355/29/1 356/28/1
f 357/35/1 358/36/1 359/30/1 360/29/1
f 361/25/1 362/26/1 363/14/1 364/13/1
f 365/26/1 366/27/1 367/17/1 368/14/1
f 369/27/1 370/28/1 371/19/1 372/17/1
f 373/28/1 374/29/1 375/21/1 376/19/1
f 377/29/1 378/30/1 379/23/1 380/21/1
f 381/31/1 382/32/1 383/26/1 384/25/1
f 385/32/1 386/33/1 387/27/1 388/26/1
f 389/33/1 390/34/1 391/28/1 392/27/1
f 393/34/1 394/35/1 395/29/1 396/28/1
f 397/35/1 398/36/1 399/30/1 400/29/1
f 401/25/1 402/26/1 403/14/1 404/13/1
f 405/26/1 406/27/1 407/17/1 408/14/1
f 409/27/1 410/28/1 411/19/1 412/17/1
f 413/28/1 414/29/1 415/21/1 416/19/1
f 417/29/1 418/30/1 419/23/1 420/21/1
f 421/25/1 422/26/1 423/14/1 424/13/1
f 425/26/1 426/27/1 427/17/1 428/14/1
f 429/27/1 430/28/1 431/19/1 432/17/1
f 433/28/1 434/29/1 435/21/1 436/19/1
f 437/29/1 438/30/1 439/23/1 440/21/1
f 441/25/1 442/26/1 443/14/1 444/13/1
f 445/26/1 446/27/1 447/17/1 448/14/1
f 449/27/1 450/28/1 451/19/1 452/17/1
f 453/28/1 454/29/1 455/21/1 456/19/1
f 457/29/1 458/30/1 459/23/1 460/21/1
f 461/25/1 462/26/1 463/14/1 464/13/1
f 465/26/1 466/27/1 467/17/1 468/14/1
f 469/27/1 470/28/1 471/19/1 472/17/1
f 473/28/1 474/29/1 475/21/1 476/19/1
f 477/29/1 478/30/1 479/23/1 480/21/1
f 481/31/1 482/32/1 483/26/1 484/25/1
f 485/32/1 486/33/1 487/27/1 488/26/1
f 489/33/1 490/34/1 491/28/1 492/27/1
f 493/34/1 494/35/1 495/29/1 496/28/1
f 497/35/1 498/36/1 499/30/1 500/29/1
f 501/31/1 502/32/1 503/26/1 504/25/1
f 505/32/1 506/33/1 507/27/1 508/26/1
f 509/33/1 510/34/1 511/28/1 512/27/1
f 513/34/1 514/35/1 515/29/1 516/28/1
f 517/35/1 518/36/1 519/30/1 520/29/1
f 521/31/1 522/32/1 523/26/1 524/25/1
f 525/32/1 526/33/1 527/27/1 528/26/1
f 529/33/1 530/34/1 531/28/1 532/27/1
f 533/34/1 534/35/1 535/29/1 536/28/1
f 537/35/1 538/36/1 539/30/1 540/29/1
f 541/31/1 542/32/1 543/26/1 544/25/1
f 545/32/1 546/33/1 547/27/1 548/26/1
f 549/33/1 550/34/1 551/28/1 552/27/1
f 553/34/1 554/35/1 555/29/1 556/28/1
f 557/35/1 558/36/1 559/30/1 560/29/1
f 561/31/1 562/32/1 563/26/1 564/25/1
f 565/32/1 566/33/1 567/27/1 568/26/1
f 569/33/1 570/34/1 571/28/1 572/27/1
f 573/34/1 574/35/1 575/29/1 576/28/1
f 577/35/1 578/36/1 579/30/1 580/29/1
f 581/37/1 582/38/1 583/39/1 584/40/1
f 585/38/1 586/41/1 587/42/1 588/39/1
f 589/41/1 590/43/1 591/44/1 592/42/1
f 593/43/1 594/45/1 595/46/1 596/44/1
f 597/47/1 598/48/1 599/38/1 600/37/1
f 601/48/1 602/49/1 603/41/1 604/38/1
f 605/49/1 606/50/1 607/43/1 608/41/1
f 609/50/1 610/51/1 611/45/1 612/43/1
f 613/52/1 614/53/1 615/54/1 616/55/1
f 617/53/1 618/56/1 619/57/1 620/54/1
f 621/56/1 622/58/1 623/59/1 624/57/1
f 625/60/1 626/61/1 627/48/1 628/47/1
f 629/61/1 630/62/1 631/49/1 632/48/1
f 633/62/1 634/63/1 635/50/1 636/49/1
f 637/63/1 638/64/1 639/51/1 640/50/1
f 641/65/1 642/66/1 643/53/1 644/52/1
f 645/66/1 646/67/1 647/56/1 648/53/1
f 649/67/1 650/68/1 651/58/1 652/56/1
f 653/69/1 654/70/1 655/61/1 656/60/1
f 657/70/1 658/71/1 659/62/1 660/61/1
f 661/71/1 662/72/1 663/63/1 664/62/1
f 665/72/1 666/73/1 667/64/1 668/63/1
f 669/74/1 670/75/1 671/66/1 672/65/1
f 673/75/1 674/76/1 675/67/1 676/66/1
f 677/76/1 678/77/1 679/68/1 680/67/1
f 681/78/1 682/79/1 683/70/1 684/69/1
f 685/79/1 686/80/1 687/71/1 688/70/1
f 689/80/1 690/81/1 691/72/1 692/71/1
f 693/81/1 694/82/1 695/73/1 696/72/1
f 697/83/1 698/84/1 699/75/1 700/74/1
f 701/84/1 702/85/1 703/76/1 704/75/1
f 705/85/1 706/86/1 707/77/1 708/76/1

