# Tiled2Unity generated file. Do not modify by hand.
# Wavefront file for 'Dark_Forest_mesh_0004.obj'

# Vertices (Count = 32)
v 0 -256 0
v -16 -256 0
v -16 -240 0
v 0 -240 0
v -16 -256 0
v -32 -256 0
v -32 -240 0
v -16 -240 0
v 0 -272 0
v -16 -272 0
v -16 -256 0
v 0 -256 0
v -16 -272 0
v -32 -272 0
v -32 -256 0
v -16 -256 0
v 0 -368 0
v -16 -368 0
v -16 -352 0
v 0 -352 0
v -16 -368 0
v -32 -368 0
v -32 -352 0
v -16 -352 0
v 0 -384 0
v -16 -384 0
v -16 -368 0
v 0 -368 0
v -16 -384 0
v -32 -384 0
v -32 -368 0
v -16 -368 0

# Texture cooridinates (Count = 9)
vt 0.3125 0.7395834
vt 0.3203125 0.7395834
vt 0.3203125 0.75
vt 0.3125 0.75
vt 0.328125 0.7395834
vt 0.328125 0.75
vt 0.3125 0.7291666
vt 0.3203125 0.7291666
vt 0.328125 0.7291666

# Normal
vn 0 0 -1

# Mesh description
g Dark_Forest_mesh_0004

# Faces
f 1/1/1 2/2/1 3/3/1 4/4/1
f 5/2/1 6/5/1 7/6/1 8/3/1
f 9/7/1 10/8/1 11/2/1 12/1/1
f 13/8/1 14/9/1 15/5/1 16/2/1
f 17/1/1 18/2/1 19/3/1 20/4/1
f 21/2/1 22/5/1 23/6/1 24/3/1
f 25/7/1 26/8/1 27/2/1 28/1/1
f 29/8/1 30/9/1 31/5/1 32/2/1

