# Tiled2Unity generated file. Do not modify by hand.
# Wavefront file for 'Tutorial_Yard_mesh_0003.obj'

# Vertices (Count = 36)
v 0 -208 0
v -16 -208 0
v -16 -192 0
v 0 -192 0
v 0 -224 0
v -16 -224 0
v -16 -208 0
v 0 -208 0
v 0 -240 0
v -16 -240 0
v -16 -224 0
v 0 -224 0
v 0 -256 0
v -16 -256 0
v -16 -240 0
v 0 -240 0
v 0 -272 0
v -16 -272 0
v -16 -256 0
v 0 -256 0
v 0 -288 0
v -16 -288 0
v -16 -272 0
v 0 -272 0
v 0 -304 0
v -16 -304 0
v -16 -288 0
v 0 -288 0
v 0 -320 0
v -16 -320 0
v -16 -304 0
v 0 -304 0
v 0 -336 0
v -16 -336 0
v -16 -320 0
v 0 -320 0

# Texture cooridinates (Count = 12)
vt 0.1796875 0.6979166
vt 0.1875 0.6979166
vt 0.1875 0.7083334
vt 0.1796875 0.7083334
vt 0.1328125 0.6979166
vt 0.140625 0.6979166
vt 0.140625 0.7083334
vt 0.1328125 0.7083334
vt 0.2265625 0.6875
vt 0.234375 0.6875
vt 0.234375 0.6979166
vt 0.2265625 0.6979166

# Normal
vn 0 0 -1

# Mesh description
g Tutorial_Yard_mesh_0003

# Faces
f 1/1/1 2/2/1 3/3/1 4/4/1
f 5/5/1 6/6/1 7/7/1 8/8/1
f 9/5/1 10/6/1 11/7/1 12/8/1
f 13/5/1 14/6/1 15/7/1 16/8/1
f 17/5/1 18/6/1 19/7/1 20/8/1
f 21/5/1 22/6/1 23/7/1 24/8/1
f 25/5/1 26/6/1 27/7/1 28/8/1
f 29/5/1 30/6/1 31/7/1 32/8/1
f 33/9/1 34/10/1 35/11/1 36/12/1

