# Tiled2Unity generated file. Do not modify by hand.
# Wavefront file for 'Tutorial_Yard_mesh_0002.obj'

# Vertices (Count = 328)
v 0 -64 0
v -16 -64 0
v -16 -48 0
v 0 -48 0
v -16 -64 0
v -32 -64 0
v -32 -48 0
v -16 -48 0
v -32 -64 0
v -48 -64 0
v -48 -48 0
v -32 -48 0
v -48 -64 0
v -64 -64 0
v -64 -48 0
v -48 -48 0
v -64 -64 0
v -80 -64 0
v -80 -48 0
v -64 -48 0
v -80 -64 0
v -96 -64 0
v -96 -48 0
v -80 -48 0
v -96 -64 0
v -112 -64 0
v -112 -48 0
v -96 -48 0
v -112 -64 0
v -128 -64 0
v -128 -48 0
v -112 -48 0
v -128 -64 0
v -144 -64 0
v -144 -48 0
v -128 -48 0
v -144 -64 0
v -160 -64 0
v -160 -48 0
v -144 -48 0
v -160 -64 0
v -176 -64 0
v -176 -48 0
v -160 -48 0
v -176 -64 0
v -192 -64 0
v -192 -48 0
v -176 -48 0
v -192 -64 0
v -208 -64 0
v -208 -48 0
v -192 -48 0
v -208 -64 0
v -224 -64 0
v -224 -48 0
v -208 -48 0
v -224 -64 0
v -240 -64 0
v -240 -48 0
v -224 -48 0
v -240 -64 0
v -256 -64 0
v -256 -48 0
v -240 -48 0
v -256 -64 0
v -272 -64 0
v -272 -48 0
v -256 -48 0
v -272 -64 0
v -288 -64 0
v -288 -48 0
v -272 -48 0
v -288 -64 0
v -304 -64 0
v -304 -48 0
v -288 -48 0
v -304 -64 0
v -320 -64 0
v -320 -48 0
v -304 -48 0
v -320 -64 0
v -336 -64 0
v -336 -48 0
v -320 -48 0
v -336 -64 0
v -352 -64 0
v -352 -48 0
v -336 -48 0
v -352 -64 0
v -368 -64 0
v -368 -48 0
v -352 -48 0
v -368 -64 0
v -384 -64 0
v -384 -48 0
v -368 -48 0
v -384 -64 0
v -400 -64 0
v -400 -48 0
v -384 -48 0
v -400 -64 0
v -416 -64 0
v -416 -48 0
v -400 -48 0
v 0 -80 0
v -16 -80 0
v -16 -64 0
v 0 -64 0
v -16 -80 0
v -32 -80 0
v -32 -64 0
v -16 -64 0
v -32 -80 0
v -48 -80 0
v -48 -64 0
v -32 -64 0
v -48 -80 0
v -64 -80 0
v -64 -64 0
v -48 -64 0
v -64 -80 0
v -80 -80 0
v -80 -64 0
v -64 -64 0
v -80 -80 0
v -96 -80 0
v -96 -64 0
v -80 -64 0
v -96 -80 0
v -112 -80 0
v -112 -64 0
v -96 -64 0
v -112 -80 0
v -128 -80 0
v -128 -64 0
v -112 -64 0
v -128 -80 0
v -144 -80 0
v -144 -64 0
v -128 -64 0
v -144 -80 0
v -160 -80 0
v -160 -64 0
v -144 -64 0
v -160 -80 0
v -176 -80 0
v -176 -64 0
v -160 -64 0
v -176 -80 0
v -192 -80 0
v -192 -64 0
v -176 -64 0
v -192 -80 0
v -208 -80 0
v -208 -64 0
v -192 -64 0
v -208 -80 0
v -224 -80 0
v -224 -64 0
v -208 -64 0
v -224 -80 0
v -240 -80 0
v -240 -64 0
v -224 -64 0
v -240 -80 0
v -256 -80 0
v -256 -64 0
v -240 -64 0
v -256 -80 0
v -272 -80 0
v -272 -64 0
v -256 -64 0
v -272 -80 0
v -288 -80 0
v -288 -64 0
v -272 -64 0
v -288 -80 0
v -304 -80 0
v -304 -64 0
v -288 -64 0
v -304 -80 0
v -320 -80 0
v -320 -64 0
v -304 -64 0
v -320 -80 0
v -336 -80 0
v -336 -64 0
v -320 -64 0
v -336 -80 0
v -352 -80 0
v -352 -64 0
v -336 -64 0
v -352 -80 0
v -368 -80 0
v -368 -64 0
v -352 -64 0
v -368 -80 0
v -384 -80 0
v -384 -64 0
v -368 -64 0
v -384 -80 0
v -400 -80 0
v -400 -64 0
v -384 -64 0
v -400 -80 0
v -416 -80 0
v -416 -64 0
v -400 -64 0
v 0 -96 0
v -16 -96 0
v -16 -80 0
v 0 -80 0
v -16 -96 0
v -32 -96 0
v -32 -80 0
v -16 -80 0
v -32 -96 0
v -48 -96 0
v -48 -80 0
v -32 -80 0
v -48 -96 0
v -64 -96 0
v -64 -80 0
v -48 -80 0
v -64 -96 0
v -80 -96 0
v -80 -80 0
v -64 -80 0
v -80 -96 0
v -96 -96 0
v -96 -80 0
v -80 -80 0
v -96 -96 0
v -112 -96 0
v -112 -80 0
v -96 -80 0
v -112 -96 0
v -128 -96 0
v -128 -80 0
v -112 -80 0
v -128 -96 0
v -144 -96 0
v -144 -80 0
v -128 -80 0
v -144 -96 0
v -160 -96 0
v -160 -80 0
v -144 -80 0
v -160 -96 0
v -176 -96 0
v -176 -80 0
v -160 -80 0
v -176 -96 0
v -192 -96 0
v -192 -80 0
v -176 -80 0
v -192 -96 0
v -208 -96 0
v -208 -80 0
v -192 -80 0
v -208 -96 0
v -224 -96 0
v -224 -80 0
v -208 -80 0
v -224 -96 0
v -240 -96 0
v -240 -80 0
v -224 -80 0
v -240 -96 0
v -256 -96 0
v -256 -80 0
v -240 -80 0
v -256 -96 0
v -272 -96 0
v -272 -80 0
v -256 -80 0
v -272 -96 0
v -288 -96 0
v -288 -80 0
v -272 -80 0
v -288 -96 0
v -304 -96 0
v -304 -80 0
v -288 -80 0
v -304 -96 0
v -320 -96 0
v -320 -80 0
v -304 -80 0
v -320 -96 0
v -336 -96 0
v -336 -80 0
v -320 -80 0
v -336 -96 0
v -352 -96 0
v -352 -80 0
v -336 -80 0
v -352 -96 0
v -368 -96 0
v -368 -80 0
v -352 -80 0
v -368 -96 0
v -384 -96 0
v -384 -80 0
v -368 -80 0
v -384 -96 0
v -400 -96 0
v -400 -80 0
v -384 -80 0
v -400 -96 0
v -416 -96 0
v -416 -80 0
v -400 -80 0
v 0 -112 0
v -16 -112 0
v -16 -96 0
v 0 -96 0
v -16 -112 0
v -32 -112 0
v -32 -96 0
v -16 -96 0
v 0 -128 0
v -16 -128 0
v -16 -112 0
v 0 -112 0
v -16 -128 0
v -32 -128 0
v -32 -112 0
v -16 -112 0

# Texture cooridinates (Count = 12)
vt 0.8636364 0.6
vt 0.9090909 0.6
vt 0.9090909 0.6222222
vt 0.8636364 0.6222222
vt 0.9545454 0.6
vt 0.9545454 0.6222222
vt 0.8636364 0.5777777
vt 0.9090909 0.5777777
vt 0.9545454 0.5777777
vt 0.8636364 0.5555556
vt 0.9090909 0.5555556
vt 0.9545454 0.5555556

# Normal
vn 0 0 -1

# Mesh description
g Tutorial_Yard_mesh_0002

# Faces
f 1/1/1 2/2/1 3/3/1 4/4/1
f 5/2/1 6/5/1 7/6/1 8/3/1
f 9/1/1 10/2/1 11/3/1 12/4/1
f 13/2/1 14/5/1 15/6/1 16/3/1
f 17/1/1 18/2/1 19/3/1 20/4/1
f 21/2/1 22/5/1 23/6/1 24/3/1
f 25/1/1 26/2/1 27/3/1 28/4/1
f 29/2/1 30/5/1 31/6/1 32/3/1
f 33/1/1 34/2/1 35/3/1 36/4/1
f 37/2/1 38/5/1 39/6/1 40/3/1
f 41/1/1 42/2/1 43/3/1 44/4/1
f 45/2/1 46/5/1 47/6/1 48/3/1
f 49/1/1 50/2/1 51/3/1 52/4/1
f 53/2/1 54/5/1 55/6/1 56/3/1
f 57/1/1 58/2/1 59/3/1 60/4/1
f 61/2/1 62/5/1 63/6/1 64/3/1
f 65/1/1 66/2/1 67/3/1 68/4/1
f 69/2/1 70/5/1 71/6/1 72/3/1
f 73/1/1 74/2/1 75/3/1 76/4/1
f 77/2/1 78/5/1 79/6/1 80/3/1
f 81/1/1 82/2/1 83/3/1 84/4/1
f 85/2/1 86/5/1 87/6/1 88/3/1
f 89/1/1 90/2/1 91/3/1 92/4/1
f 93/2/1 94/5/1 95/6/1 96/3/1
f 97/1/1 98/2/1 99/3/1 100/4/1
f 101/2/1 102/5/1 103/6/1 104/3/1
f 105/7/1 106/8/1 107/2/1 108/1/1
f 109/8/1 110/9/1 111/5/1 112/2/1
f 113/7/1 114/8/1 115/2/1 116/1/1
f 117/8/1 118/9/1 119/5/1 120/2/1
f 121/7/1 122/8/1 123/2/1 124/1/1
f 125/8/1 126/9/1 127/5/1 128/2/1
f 129/7/1 130/8/1 131/2/1 132/1/1
f 133/8/1 134/9/1 135/5/1 136/2/1
f 137/7/1 138/8/1 139/2/1 140/1/1
f 141/8/1 142/9/1 143/5/1 144/2/1
f 145/7/1 146/8/1 147/2/1 148/1/1
f 149/8/1 150/9/1 151/5/1 152/2/1
f 153/7/1 154/8/1 155/2/1 156/1/1
f 157/8/1 158/9/1 159/5/1 160/2/1
f 161/7/1 162/8/1 163/2/1 164/1/1
f 165/8/1 166/9/1 167/5/1 168/2/1
f 169/7/1 170/8/1 171/2/1 172/1/1
f 173/8/1 174/9/1 175/5/1 176/2/1
f 177/7/1 178/8/1 179/2/1 180/1/1
f 181/8/1 182/9/1 183/5/1 184/2/1
f 185/7/1 186/8/1 187/2/1 188/1/1
f 189/8/1 190/9/1 191/5/1 192/2/1
f 193/7/1 194/8/1 195/2/1 196/1/1
f 197/8/1 198/9/1 199/5/1 200/2/1
f 201/7/1 202/8/1 203/2/1 204/1/1
f 205/8/1 206/9/1 207/5/1 208/2/1
f 209/10/1 210/11/1 211/8/1 212/7/1
f 213/11/1 214/12/1 215/9/1 216/8/1
f 217/10/1 218/11/1 219/8/1 220/7/1
f 221/11/1 222/12/1 223/9/1 224/8/1
f 225/10/1 226/11/1 227/8/1 228/7/1
f 229/11/1 230/12/1 231/9/1 232/8/1
f 233/10/1 234/11/1 235/8/1 236/7/1
f 237/11/1 238/12/1 239/9/1 240/8/1
f 241/10/1 242/11/1 243/8/1 244/7/1
f 245/11/1 246/12/1 247/9/1 248/8/1
f 249/10/1 250/11/1 251/8/1 252/7/1
f 253/11/1 254/12/1 255/9/1 256/8/1
f 257/10/1 258/11/1 259/8/1 260/7/1
f 261/11/1 262/12/1 263/9/1 264/8/1
f 265/10/1 266/11/1 267/8/1 268/7/1
f 269/11/1 270/12/1 271/9/1 272/8/1
f 273/10/1 274/11/1 275/8/1 276/7/1
f 277/11/1 278/12/1 279/9/1 280/8/1
f 281/10/1 282/11/1 283/8/1 284/7/1
f 285/11/1 286/12/1 287/9/1 288/8/1
f 289/10/1 290/11/1 291/8/1 292/7/1
f 293/11/1 294/12/1 295/9/1 296/8/1
f 297/10/1 298/11/1 299/8/1 300/7/1
f 301/11/1 302/12/1 303/9/1 304/8/1
f 305/10/1 306/11/1 307/8/1 308/7/1
f 309/11/1 310/12/1 311/9/1 312/8/1
f 313/7/1 314/8/1 315/2/1 316/1/1
f 317/8/1 318/9/1 319/5/1 320/2/1
f 321/10/1 322/11/1 323/8/1 324/7/1
f 325/11/1 326/12/1 327/9/1 328/8/1

