# Tiled2Unity generated file. Do not modify by hand.
# Wavefront file for 'Mountain2_mesh_0006.obj'

# Vertices (Count = 32)
v -1328 -256 0
v -1344 -256 0
v -1344 -240 0
v -1328 -240 0
v -1344 -256 0
v -1360 -256 0
v -1360 -240 0
v -1344 -240 0
v -1328 -272 0
v -1344 -272 0
v -1344 -256 0
v -1328 -256 0
v -1344 -272 0
v -1360 -272 0
v -1360 -256 0
v -1344 -256 0
v -1328 -352 0
v -1344 -352 0
v -1344 -336 0
v -1328 -336 0
v -1344 -352 0
v -1360 -352 0
v -1360 -336 0
v -1344 -336 0
v -1328 -368 0
v -1344 -368 0
v -1344 -352 0
v -1328 -352 0
v -1344 -368 0
v -1360 -368 0
v -1360 -352 0
v -1344 -352 0

# Texture cooridinates (Count = 15)
vt 0.203125 0.7395834
vt 0.2109375 0.7395834
vt 0.2109375 0.75
vt 0.203125 0.75
vt 0.21875 0.7395834
vt 0.21875 0.75
vt 0.203125 0.7291666
vt 0.2109375 0.7291666
vt 0.21875 0.7291666
vt 0.2265625 0.7395834
vt 0.2265625 0.75
vt 0.234375 0.7395834
vt 0.234375 0.75
vt 0.2265625 0.7291666
vt 0.234375 0.7291666

# Normal
vn 0 0 -1

# Mesh description
g Mountain2_mesh_0006

# Faces
f 1/1/1 2/2/1 3/3/1 4/4/1
f 5/2/1 6/5/1 7/6/1 8/3/1
f 9/7/1 10/8/1 11/2/1 12/1/1
f 13/8/1 14/9/1 15/5/1 16/2/1
f 17/5/1 18/10/1 19/11/1 20/6/1
f 21/10/1 22/12/1 23/13/1 24/11/1
f 25/9/1 26/14/1 27/10/1 28/5/1
f 29/14/1 30/15/1 31/12/1 32/10/1

