# Tiled2Unity generated file. Do not modify by hand.
# Wavefront file for 'Crolls_Castle1_mesh_0010.obj'

# Vertices (Count = 600)
v -720 -288 0
v -736 -288 0
v -736 -272 0
v -720 -272 0
v -736 -288 0
v -752 -288 0
v -752 -272 0
v -736 -272 0
v -752 -288 0
v -768 -288 0
v -768 -272 0
v -752 -272 0
v -768 -288 0
v -784 -288 0
v -784 -272 0
v -768 -272 0
v -784 -288 0
v -800 -288 0
v -800 -272 0
v -784 -272 0
v -800 -288 0
v -816 -288 0
v -816 -272 0
v -800 -272 0
v -816 -288 0
v -832 -288 0
v -832 -272 0
v -816 -272 0
v -832 -288 0
v -848 -288 0
v -848 -272 0
v -832 -272 0
v -848 -288 0
v -864 -288 0
v -864 -272 0
v -848 -272 0
v -864 -288 0
v -880 -288 0
v -880 -272 0
v -864 -272 0
v -880 -288 0
v -896 -288 0
v -896 -272 0
v -880 -272 0
v -896 -288 0
v -912 -288 0
v -912 -272 0
v -896 -272 0
v -912 -288 0
v -928 -288 0
v -928 -272 0
v -912 -272 0
v -928 -288 0
v -944 -288 0
v -944 -272 0
v -928 -272 0
v -944 -288 0
v -960 -288 0
v -960 -272 0
v -944 -272 0
v -960 -288 0
v -976 -288 0
v -976 -272 0
v -960 -272 0
v -976 -288 0
v -992 -288 0
v -992 -272 0
v -976 -272 0
v -992 -288 0
v -1008 -288 0
v -1008 -272 0
v -992 -272 0
v -1008 -288 0
v -1024 -288 0
v -1024 -272 0
v -1008 -272 0
v -1024 -288 0
v -1040 -288 0
v -1040 -272 0
v -1024 -272 0
v -1040 -288 0
v -1056 -288 0
v -1056 -272 0
v -1040 -272 0
v -1056 -288 0
v -1072 -288 0
v -1072 -272 0
v -1056 -272 0
v -1072 -288 0
v -1088 -288 0
v -1088 -272 0
v -1072 -272 0
v -1088 -288 0
v -1104 -288 0
v -1104 -272 0
v -1088 -272 0
v -1104 -288 0
v -1120 -288 0
v -1120 -272 0
v -1104 -272 0
v -720 -304 0
v -736 -304 0
v -736 -288 0
v -720 -288 0
v -736 -304 0
v -752 -304 0
v -752 -288 0
v -736 -288 0
v -752 -304 0
v -768 -304 0
v -768 -288 0
v -752 -288 0
v -768 -304 0
v -784 -304 0
v -784 -288 0
v -768 -288 0
v -784 -304 0
v -800 -304 0
v -800 -288 0
v -784 -288 0
v -800 -304 0
v -816 -304 0
v -816 -288 0
v -800 -288 0
v -816 -304 0
v -832 -304 0
v -832 -288 0
v -816 -288 0
v -832 -304 0
v -848 -304 0
v -848 -288 0
v -832 -288 0
v -848 -304 0
v -864 -304 0
v -864 -288 0
v -848 -288 0
v -864 -304 0
v -880 -304 0
v -880 -288 0
v -864 -288 0
v -880 -304 0
v -896 -304 0
v -896 -288 0
v -880 -288 0
v -896 -304 0
v -912 -304 0
v -912 -288 0
v -896 -288 0
v -912 -304 0
v -928 -304 0
v -928 -288 0
v -912 -288 0
v -928 -304 0
v -944 -304 0
v -944 -288 0
v -928 -288 0
v -944 -304 0
v -960 -304 0
v -960 -288 0
v -944 -288 0
v -960 -304 0
v -976 -304 0
v -976 -288 0
v -960 -288 0
v -976 -304 0
v -992 -304 0
v -992 -288 0
v -976 -288 0
v -992 -304 0
v -1008 -304 0
v -1008 -288 0
v -992 -288 0
v -1008 -304 0
v -1024 -304 0
v -1024 -288 0
v -1008 -288 0
v -1024 -304 0
v -1040 -304 0
v -1040 -288 0
v -1024 -288 0
v -1040 -304 0
v -1056 -304 0
v -1056 -288 0
v -1040 -288 0
v -1056 -304 0
v -1072 -304 0
v -1072 -288 0
v -1056 -288 0
v -1072 -304 0
v -1088 -304 0
v -1088 -288 0
v -1072 -288 0
v -1088 -304 0
v -1104 -304 0
v -1104 -288 0
v -1088 -288 0
v -1104 -304 0
v -1120 -304 0
v -1120 -288 0
v -1104 -288 0
v -720 -320 0
v -736 -320 0
v -736 -304 0
v -720 -304 0
v -736 -320 0
v -752 -320 0
v -752 -304 0
v -736 -304 0
v -752 -320 0
v -768 -320 0
v -768 -304 0
v -752 -304 0
v -768 -320 0
v -784 -320 0
v -784 -304 0
v -768 -304 0
v -784 -320 0
v -800 -320 0
v -800 -304 0
v -784 -304 0
v -800 -320 0
v -816 -320 0
v -816 -304 0
v -800 -304 0
v -816 -320 0
v -832 -320 0
v -832 -304 0
v -816 -304 0
v -832 -320 0
v -848 -320 0
v -848 -304 0
v -832 -304 0
v -848 -320 0
v -864 -320 0
v -864 -304 0
v -848 -304 0
v -864 -320 0
v -880 -320 0
v -880 -304 0
v -864 -304 0
v -880 -320 0
v -896 -320 0
v -896 -304 0
v -880 -304 0
v -896 -320 0
v -912 -320 0
v -912 -304 0
v -896 -304 0
v -912 -320 0
v -928 -320 0
v -928 -304 0
v -912 -304 0
v -928 -320 0
v -944 -320 0
v -944 -304 0
v -928 -304 0
v -944 -320 0
v -960 -320 0
v -960 -304 0
v -944 -304 0
v -960 -320 0
v -976 -320 0
v -976 -304 0
v -960 -304 0
v -976 -320 0
v -992 -320 0
v -992 -304 0
v -976 -304 0
v -992 -320 0
v -1008 -320 0
v -1008 -304 0
v -992 -304 0
v -1008 -320 0
v -1024 -320 0
v -1024 -304 0
v -1008 -304 0
v -1024 -320 0
v -1040 -320 0
v -1040 -304 0
v -1024 -304 0
v -1040 -320 0
v -1056 -320 0
v -1056 -304 0
v -1040 -304 0
v -1056 -320 0
v -1072 -320 0
v -1072 -304 0
v -1056 -304 0
v -1072 -320 0
v -1088 -320 0
v -1088 -304 0
v -1072 -304 0
v -1088 -320 0
v -1104 -320 0
v -1104 -304 0
v -1088 -304 0
v -1104 -320 0
v -1120 -320 0
v -1120 -304 0
v -1104 -304 0
v -720 -336 0
v -736 -336 0
v -736 -320 0
v -720 -320 0
v -736 -336 0
v -752 -336 0
v -752 -320 0
v -736 -320 0
v -752 -336 0
v -768 -336 0
v -768 -320 0
v -752 -320 0
v -768 -336 0
v -784 -336 0
v -784 -320 0
v -768 -320 0
v -784 -336 0
v -800 -336 0
v -800 -320 0
v -784 -320 0
v -800 -336 0
v -816 -336 0
v -816 -320 0
v -800 -320 0
v -816 -336 0
v -832 -336 0
v -832 -320 0
v -816 -320 0
v -832 -336 0
v -848 -336 0
v -848 -320 0
v -832 -320 0
v -848 -336 0
v -864 -336 0
v -864 -320 0
v -848 -320 0
v -864 -336 0
v -880 -336 0
v -880 -320 0
v -864 -320 0
v -880 -336 0
v -896 -336 0
v -896 -320 0
v -880 -320 0
v -896 -336 0
v -912 -336 0
v -912 -320 0
v -896 -320 0
v -912 -336 0
v -928 -336 0
v -928 -320 0
v -912 -320 0
v -928 -336 0
v -944 -336 0
v -944 -320 0
v -928 -320 0
v -944 -336 0
v -960 -336 0
v -960 -320 0
v -944 -320 0
v -960 -336 0
v -976 -336 0
v -976 -320 0
v -960 -320 0
v -976 -336 0
v -992 -336 0
v -992 -320 0
v -976 -320 0
v -992 -336 0
v -1008 -336 0
v -1008 -320 0
v -992 -320 0
v -1008 -336 0
v -1024 -336 0
v -1024 -320 0
v -1008 -320 0
v -1024 -336 0
v -1040 -336 0
v -1040 -320 0
v -1024 -320 0
v -1040 -336 0
v -1056 -336 0
v -1056 -320 0
v -1040 -320 0
v -1056 -336 0
v -1072 -336 0
v -1072 -320 0
v -1056 -320 0
v -1072 -336 0
v -1088 -336 0
v -1088 -320 0
v -1072 -320 0
v -1088 -336 0
v -1104 -336 0
v -1104 -320 0
v -1088 -320 0
v -1104 -336 0
v -1120 -336 0
v -1120 -320 0
v -1104 -320 0
v -720 -352 0
v -736 -352 0
v -736 -336 0
v -720 -336 0
v -736 -352 0
v -752 -352 0
v -752 -336 0
v -736 -336 0
v -752 -352 0
v -768 -352 0
v -768 -336 0
v -752 -336 0
v -768 -352 0
v -784 -352 0
v -784 -336 0
v -768 -336 0
v -784 -352 0
v -800 -352 0
v -800 -336 0
v -784 -336 0
v -800 -352 0
v -816 -352 0
v -816 -336 0
v -800 -336 0
v -816 -352 0
v -832 -352 0
v -832 -336 0
v -816 -336 0
v -832 -352 0
v -848 -352 0
v -848 -336 0
v -832 -336 0
v -848 -352 0
v -864 -352 0
v -864 -336 0
v -848 -336 0
v -864 -352 0
v -880 -352 0
v -880 -336 0
v -864 -336 0
v -880 -352 0
v -896 -352 0
v -896 -336 0
v -880 -336 0
v -896 -352 0
v -912 -352 0
v -912 -336 0
v -896 -336 0
v -912 -352 0
v -928 -352 0
v -928 -336 0
v -912 -336 0
v -928 -352 0
v -944 -352 0
v -944 -336 0
v -928 -336 0
v -944 -352 0
v -960 -352 0
v -960 -336 0
v -944 -336 0
v -960 -352 0
v -976 -352 0
v -976 -336 0
v -960 -336 0
v -976 -352 0
v -992 -352 0
v -992 -336 0
v -976 -336 0
v -992 -352 0
v -1008 -352 0
v -1008 -336 0
v -992 -336 0
v -1008 -352 0
v -1024 -352 0
v -1024 -336 0
v -1008 -336 0
v -1024 -352 0
v -1040 -352 0
v -1040 -336 0
v -1024 -336 0
v -1040 -352 0
v -1056 -352 0
v -1056 -336 0
v -1040 -336 0
v -1056 -352 0
v -1072 -352 0
v -1072 -336 0
v -1056 -336 0
v -1072 -352 0
v -1088 -352 0
v -1088 -336 0
v -1072 -336 0
v -1088 -352 0
v -1104 -352 0
v -1104 -336 0
v -1088 -336 0
v -1104 -352 0
v -1120 -352 0
v -1120 -336 0
v -1104 -336 0
v -720 -368 0
v -736 -368 0
v -736 -352 0
v -720 -352 0
v -736 -368 0
v -752 -368 0
v -752 -352 0
v -736 -352 0
v -752 -368 0
v -768 -368 0
v -768 -352 0
v -752 -352 0
v -768 -368 0
v -784 -368 0
v -784 -352 0
v -768 -352 0
v -784 -368 0
v -800 -368 0
v -800 -352 0
v -784 -352 0
v -800 -368 0
v -816 -368 0
v -816 -352 0
v -800 -352 0
v -816 -368 0
v -832 -368 0
v -832 -352 0
v -816 -352 0
v -832 -368 0
v -848 -368 0
v -848 -352 0
v -832 -352 0
v -848 -368 0
v -864 -368 0
v -864 -352 0
v -848 -352 0
v -864 -368 0
v -880 -368 0
v -880 -352 0
v -864 -352 0
v -880 -368 0
v -896 -368 0
v -896 -352 0
v -880 -352 0
v -896 -368 0
v -912 -368 0
v -912 -352 0
v -896 -352 0
v -912 -368 0
v -928 -368 0
v -928 -352 0
v -912 -352 0
v -928 -368 0
v -944 -368 0
v -944 -352 0
v -928 -352 0
v -944 -368 0
v -960 -368 0
v -960 -352 0
v -944 -352 0
v -960 -368 0
v -976 -368 0
v -976 -352 0
v -960 -352 0
v -976 -368 0
v -992 -368 0
v -992 -352 0
v -976 -352 0
v -992 -368 0
v -1008 -368 0
v -1008 -352 0
v -992 -352 0
v -1008 -368 0
v -1024 -368 0
v -1024 -352 0
v -1008 -352 0
v -1024 -368 0
v -1040 -368 0
v -1040 -352 0
v -1024 -352 0
v -1040 -368 0
v -1056 -368 0
v -1056 -352 0
v -1040 -352 0
v -1056 -368 0
v -1072 -368 0
v -1072 -352 0
v -1056 -352 0
v -1072 -368 0
v -1088 -368 0
v -1088 -352 0
v -1072 -352 0
v -1088 -368 0
v -1104 -368 0
v -1104 -352 0
v -1088 -352 0
v -1104 -368 0
v -1120 -368 0
v -1120 -352 0
v -1104 -352 0

# Texture cooridinates (Count = 25)
vt 0 0.75
vt 0.25 0.75
vt 0.25 1
vt 0 1
vt 0.5 0.75
vt 0.5 1
vt 0.75 0.75
vt 0.75 1
vt 1 0.75
vt 1 1
vt 0 0.5
vt 0.25 0.5
vt 0.5 0.5
vt 0.75 0.5
vt 1 0.5
vt 0 0.25
vt 0.25 0.25
vt 0.5 0.25
vt 0.75 0.25
vt 1 0.25
vt 0 0
vt 0.25 0
vt 0.5 0
vt 0.75 0
vt 1 0

# Normal
vn 0 0 -1

# Mesh description
g Crolls_Castle1_mesh_0010

# Faces
f 1/1/1 2/2/1 3/3/1 4/4/1
f 5/2/1 6/5/1 7/6/1 8/3/1
f 9/5/1 10/7/1 11/8/1 12/6/1
f 13/2/1 14/5/1 15/6/1 16/3/1
f 17/5/1 18/7/1 19/8/1 20/6/1
f 21/2/1 22/5/1 23/6/1 24/3/1
f 25/5/1 26/7/1 27/8/1 28/6/1
f 29/2/1 30/5/1 31/6/1 32/3/1
f 33/5/1 34/7/1 35/8/1 36/6/1
f 37/2/1 38/5/1 39/6/1 40/3/1
f 41/2/1 42/5/1 43/6/1 44/3/1
f 45/5/1 46/7/1 47/8/1 48/6/1
f 49/2/1 50/5/1 51/6/1 52/3/1
f 53/5/1 54/7/1 55/8/1 56/6/1
f 57/2/1 58/5/1 59/6/1 60/3/1
f 61/2/1 62/5/1 63/6/1 64/3/1
f 65/5/1 66/7/1 67/8/1 68/6/1
f 69/2/1 70/5/1 71/6/1 72/3/1
f 73/5/1 74/7/1 75/8/1 76/6/1
f 77/2/1 78/5/1 79/6/1 80/3/1
f 81/5/1 82/7/1 83/8/1 84/6/1
f 85/2/1 86/5/1 87/6/1 88/3/1
f 89/5/1 90/7/1 91/8/1 92/6/1
f 93/2/1 94/5/1 95/6/1 96/3/1
f 97/7/1 98/9/1 99/10/1 100/8/1
f 101/11/1 102/12/1 103/2/1 104/1/1
f 105/12/1 106/13/1 107/5/1 108/2/1
f 109/13/1 110/14/1 111/7/1 112/5/1
f 113/12/1 114/13/1 115/5/1 116/2/1
f 117/12/1 118/13/1 119/5/1 120/2/1
f 121/12/1 122/13/1 123/5/1 124/2/1
f 125/13/1 126/14/1 127/7/1 128/5/1
f 129/12/1 130/13/1 131/5/1 132/2/1
f 133/13/1 134/14/1 135/7/1 136/5/1
f 137/12/1 138/13/1 139/5/1 140/2/1
f 141/12/1 142/13/1 143/5/1 144/2/1
f 145/12/1 146/13/1 147/5/1 148/2/1
f 149/12/1 150/13/1 151/5/1 152/2/1
f 153/13/1 154/14/1 155/7/1 156/5/1
f 157/12/1 158/13/1 159/5/1 160/2/1
f 161/12/1 162/13/1 163/5/1 164/2/1
f 165/12/1 166/13/1 167/5/1 168/2/1
f 169/12/1 170/13/1 171/5/1 172/2/1
f 173/12/1 174/13/1 175/5/1 176/2/1
f 177/13/1 178/14/1 179/7/1 180/5/1
f 181/12/1 182/13/1 183/5/1 184/2/1
f 185/12/1 186/13/1 187/5/1 188/2/1
f 189/12/1 190/13/1 191/5/1 192/2/1
f 193/13/1 194/14/1 195/7/1 196/5/1
f 197/14/1 198/15/1 199/9/1 200/7/1
f 201/11/1 202/12/1 203/2/1 204/1/1
f 205/12/1 206/13/1 207/5/1 208/2/1
f 209/13/1 210/14/1 211/7/1 212/5/1
f 213/12/1 214/13/1 215/5/1 216/2/1
f 217/13/1 218/14/1 219/7/1 220/5/1
f 221/12/1 222/13/1 223/5/1 224/2/1
f 225/13/1 226/14/1 227/7/1 228/5/1
f 229/12/1 230/13/1 231/5/1 232/2/1
f 233/13/1 234/14/1 235/7/1 236/5/1
f 237/12/1 238/13/1 239/5/1 240/2/1
f 241/13/1 242/14/1 243/7/1 244/5/1
f 245/12/1 246/13/1 247/5/1 248/2/1
f 249/12/1 250/13/1 251/5/1 252/2/1
f 253/13/1 254/14/1 255/7/1 256/5/1
f 257/12/1 258/13/1 259/5/1 260/2/1
f 261/13/1 262/14/1 263/7/1 264/5/1
f 265/12/1 266/13/1 267/5/1 268/2/1
f 269/12/1 270/13/1 271/5/1 272/2/1
f 273/12/1 274/13/1 275/5/1 276/2/1
f 277/13/1 278/14/1 279/7/1 280/5/1
f 281/12/1 282/13/1 283/5/1 284/2/1
f 285/13/1 286/14/1 287/7/1 288/5/1
f 289/12/1 290/13/1 291/5/1 292/2/1
f 293/13/1 294/14/1 295/7/1 296/5/1
f 297/14/1 298/15/1 299/9/1 300/7/1
f 301/11/1 302/12/1 303/2/1 304/1/1
f 305/12/1 306/13/1 307/5/1 308/2/1
f 309/13/1 310/14/1 311/7/1 312/5/1
f 313/12/1 314/13/1 315/5/1 316/2/1
f 317/13/1 318/14/1 319/7/1 320/5/1
f 321/12/1 322/13/1 323/5/1 324/2/1
f 325/13/1 326/14/1 327/7/1 328/5/1
f 329/12/1 330/13/1 331/5/1 332/2/1
f 333/13/1 334/14/1 335/7/1 336/5/1
f 337/12/1 338/13/1 339/5/1 340/2/1
f 341/13/1 342/14/1 343/7/1 344/5/1
f 345/12/1 346/13/1 347/5/1 348/2/1
f 349/12/1 350/13/1 351/5/1 352/2/1
f 353/13/1 354/14/1 355/7/1 356/5/1
f 357/12/1 358/13/1 359/5/1 360/2/1
f 361/13/1 362/14/1 363/7/1 364/5/1
f 365/12/1 366/13/1 367/5/1 368/2/1
f 369/12/1 370/13/1 371/5/1 372/2/1
f 373/12/1 374/13/1 375/5/1 376/2/1
f 377/13/1 378/14/1 379/7/1 380/5/1
f 381/12/1 382/13/1 383/5/1 384/2/1
f 385/13/1 386/14/1 387/7/1 388/5/1
f 389/12/1 390/13/1 391/5/1 392/2/1
f 393/13/1 394/14/1 395/7/1 396/5/1
f 397/14/1 398/15/1 399/9/1 400/7/1
f 401/16/1 402/17/1 403/12/1 404/11/1
f 405/17/1 406/18/1 407/13/1 408/12/1
f 409/18/1 410/19/1 411/14/1 412/13/1
f 413/17/1 414/18/1 415/13/1 416/12/1
f 417/18/1 418/19/1 419/14/1 420/13/1
f 421/17/1 422/18/1 423/13/1 424/12/1
f 425/18/1 426/19/1 427/14/1 428/13/1
f 429/17/1 430/18/1 431/13/1 432/12/1
f 433/18/1 434/19/1 435/14/1 436/13/1
f 437/17/1 438/18/1 439/13/1 440/12/1
f 441/18/1 442/19/1 443/14/1 444/13/1
f 445/17/1 446/18/1 447/13/1 448/12/1
f 449/18/1 450/19/1 451/14/1 452/13/1
f 453/18/1 454/19/1 455/14/1 456/13/1
f 457/17/1 458/18/1 459/13/1 460/12/1
f 461/18/1 462/19/1 463/14/1 464/13/1
f 465/17/1 466/18/1 467/13/1 468/12/1
f 469/18/1 470/19/1 471/14/1 472/13/1
f 473/17/1 474/18/1 475/13/1 476/12/1
f 477/18/1 478/19/1 479/14/1 480/13/1
f 481/17/1 482/18/1 483/13/1 484/12/1
f 485/18/1 486/19/1 487/14/1 488/13/1
f 489/17/1 490/18/1 491/13/1 492/12/1
f 493/18/1 494/19/1 495/14/1 496/13/1
f 497/19/1 498/20/1 499/15/1 500/14/1
f 501/21/1 502/22/1 503/17/1 504/16/1
f 505/22/1 506/23/1 507/18/1 508/17/1
f 509/23/1 510/24/1 511/19/1 512/18/1
f 513/22/1 514/23/1 515/18/1 516/17/1
f 517/23/1 518/24/1 519/19/1 520/18/1
f 521/22/1 522/23/1 523/18/1 524/17/1
f 525/23/1 526/24/1 527/19/1 528/18/1
f 529/22/1 530/23/1 531/18/1 532/17/1
f 533/23/1 534/24/1 535/19/1 536/18/1
f 537/22/1 538/23/1 539/18/1 540/17/1
f 541/23/1 542/24/1 543/19/1 544/18/1
f 545/22/1 546/23/1 547/18/1 548/17/1
f 549/23/1 550/24/1 551/19/1 552/18/1
f 553/23/1 554/24/1 555/19/1 556/18/1
f 557/22/1 558/23/1 559/18/1 560/17/1
f 561/23/1 562/24/1 563/19/1 564/18/1
f 565/22/1 566/23/1 567/18/1 568/17/1
f 569/23/1 570/24/1 571/19/1 572/18/1
f 573/22/1 574/23/1 575/18/1 576/17/1
f 577/23/1 578/24/1 579/19/1 580/18/1
f 581/22/1 582/23/1 583/18/1 584/17/1
f 585/23/1 586/24/1 587/19/1 588/18/1
f 589/22/1 590/23/1 591/18/1 592/17/1
f 593/23/1 594/24/1 595/19/1 596/18/1
f 597/24/1 598/25/1 599/20/1 600/19/1

