# Tiled2Unity generated file. Do not modify by hand.
# Wavefront file for 'Crolls_Castle1_mesh_0006.obj'

# Vertices (Count = 248)
v -192 -112 0
v -208 -112 0
v -208 -96 0
v -192 -96 0
v -560 -112 0
v -576 -112 0
v -576 -96 0
v -560 -96 0
v -1712 -112 0
v -1728 -112 0
v -1728 -96 0
v -1712 -96 0
v -3136 -112 0
v -3152 -112 0
v -3152 -96 0
v -3136 -96 0
v -208 -128 0
v -224 -128 0
v -224 -112 0
v -208 -112 0
v -544 -128 0
v -560 -128 0
v -560 -112 0
v -544 -112 0
v -1696 -128 0
v -1712 -128 0
v -1712 -112 0
v -1696 -112 0
v -3120 -128 0
v -3136 -128 0
v -3136 -112 0
v -3120 -112 0
v -224 -144 0
v -240 -144 0
v -240 -128 0
v -224 -128 0
v -528 -144 0
v -544 -144 0
v -544 -128 0
v -528 -128 0
v -1680 -144 0
v -1696 -144 0
v -1696 -128 0
v -1680 -128 0
v -3104 -144 0
v -3120 -144 0
v -3120 -128 0
v -3104 -128 0
v -240 -160 0
v -256 -160 0
v -256 -144 0
v -240 -144 0
v -512 -160 0
v -528 -160 0
v -528 -144 0
v -512 -144 0
v -1664 -160 0
v -1680 -160 0
v -1680 -144 0
v -1664 -144 0
v -3088 -160 0
v -3104 -160 0
v -3104 -144 0
v -3088 -144 0
v -256 -176 0
v -272 -176 0
v -272 -160 0
v -256 -160 0
v -496 -176 0
v -512 -176 0
v -512 -160 0
v -496 -160 0
v -1648 -176 0
v -1664 -176 0
v -1664 -160 0
v -1648 -160 0
v -3072 -176 0
v -3088 -176 0
v -3088 -160 0
v -3072 -160 0
v -272 -192 0
v -288 -192 0
v -288 -176 0
v -272 -176 0
v -480 -192 0
v -496 -192 0
v -496 -176 0
v -480 -176 0
v -1632 -192 0
v -1648 -192 0
v -1648 -176 0
v -1632 -176 0
v -3056 -192 0
v -3072 -192 0
v -3072 -176 0
v -3056 -176 0
v -288 -208 0
v -304 -208 0
v -304 -192 0
v -288 -192 0
v -464 -208 0
v -480 -208 0
v -480 -192 0
v -464 -192 0
v -1616 -208 0
v -1632 -208 0
v -1632 -192 0
v -1616 -192 0
v -3040 -208 0
v -3056 -208 0
v -3056 -192 0
v -3040 -192 0
v -1632 -352 0
v -1648 -352 0
v -1648 -336 0
v -1632 -336 0
v -1616 -368 0
v -1632 -368 0
v -1632 -352 0
v -1616 -352 0
v -2608 -400 0
v -2624 -400 0
v -2624 -384 0
v -2608 -384 0
v -480 -416 0
v -496 -416 0
v -496 -400 0
v -480 -400 0
v -2624 -416 0
v -2640 -416 0
v -2640 -400 0
v -2624 -400 0
v -464 -432 0
v -480 -432 0
v -480 -416 0
v -464 -416 0
v -288 -544 0
v -304 -544 0
v -304 -528 0
v -288 -528 0
v -1616 -544 0
v -1632 -544 0
v -1632 -528 0
v -1616 -528 0
v -2624 -544 0
v -2640 -544 0
v -2640 -528 0
v -2624 -528 0
v -3040 -544 0
v -3056 -544 0
v -3056 -528 0
v -3040 -528 0
v -272 -560 0
v -288 -560 0
v -288 -544 0
v -272 -544 0
v -1632 -560 0
v -1648 -560 0
v -1648 -544 0
v -1632 -544 0
v -2608 -560 0
v -2624 -560 0
v -2624 -544 0
v -2608 -544 0
v -3056 -560 0
v -3072 -560 0
v -3072 -544 0
v -3056 -544 0
v -256 -576 0
v -272 -576 0
v -272 -560 0
v -256 -560 0
v -1648 -576 0
v -1664 -576 0
v -1664 -560 0
v -1648 -560 0
v -2592 -576 0
v -2608 -576 0
v -2608 -560 0
v -2592 -560 0
v -3072 -576 0
v -3088 -576 0
v -3088 -560 0
v -3072 -560 0
v -240 -592 0
v -256 -592 0
v -256 -576 0
v -240 -576 0
v -1664 -592 0
v -1680 -592 0
v -1680 -576 0
v -1664 -576 0
v -2576 -592 0
v -2592 -592 0
v -2592 -576 0
v -2576 -576 0
v -3088 -592 0
v -3104 -592 0
v -3104 -576 0
v -3088 -576 0
v -224 -608 0
v -240 -608 0
v -240 -592 0
v -224 -592 0
v -1680 -608 0
v -1696 -608 0
v -1696 -592 0
v -1680 -592 0
v -2560 -608 0
v -2576 -608 0
v -2576 -592 0
v -2560 -592 0
v -3104 -608 0
v -3120 -608 0
v -3120 -592 0
v -3104 -592 0
v -208 -624 0
v -224 -624 0
v -224 -608 0
v -208 -608 0
v -1696 -624 0
v -1712 -624 0
v -1712 -608 0
v -1696 -608 0
v -2544 -624 0
v -2560 -624 0
v -2560 -608 0
v -2544 -608 0
v -3120 -624 0
v -3136 -624 0
v -3136 -608 0
v -3120 -608 0
v -192 -640 0
v -208 -640 0
v -208 -624 0
v -192 -624 0
v -1712 -640 0
v -1728 -640 0
v -1728 -624 0
v -1712 -624 0
v -2528 -640 0
v -2544 -640 0
v -2544 -624 0
v -2528 -624 0
v -3136 -640 0
v -3152 -640 0
v -3152 -624 0
v -3136 -624 0

# Texture cooridinates (Count = 4)
vt 0 0
vt 1 0
vt 1 1
vt 0 1

# Normal
vn 0 0 -1

# Mesh description
g Crolls_Castle1_mesh_0006

# Faces
f 1/1/1 2/2/1 3/3/1 4/4/1
f 5/2/1 6/1/1 7/4/1 8/3/1
f 9/2/1 10/1/1 11/4/1 12/3/1
f 13/2/1 14/1/1 15/4/1 16/3/1
f 17/1/1 18/2/1 19/3/1 20/4/1
f 21/2/1 22/1/1 23/4/1 24/3/1
f 25/2/1 26/1/1 27/4/1 28/3/1
f 29/2/1 30/1/1 31/4/1 32/3/1
f 33/1/1 34/2/1 35/3/1 36/4/1
f 37/2/1 38/1/1 39/4/1 40/3/1
f 41/2/1 42/1/1 43/4/1 44/3/1
f 45/2/1 46/1/1 47/4/1 48/3/1
f 49/1/1 50/2/1 51/3/1 52/4/1
f 53/2/1 54/1/1 55/4/1 56/3/1
f 57/2/1 58/1/1 59/4/1 60/3/1
f 61/2/1 62/1/1 63/4/1 64/3/1
f 65/1/1 66/2/1 67/3/1 68/4/1
f 69/2/1 70/1/1 71/4/1 72/3/1
f 73/2/1 74/1/1 75/4/1 76/3/1
f 77/2/1 78/1/1 79/4/1 80/3/1
f 81/1/1 82/2/1 83/3/1 84/4/1
f 85/2/1 86/1/1 87/4/1 88/3/1
f 89/2/1 90/1/1 91/4/1 92/3/1
f 93/2/1 94/1/1 95/4/1 96/3/1
f 97/1/1 98/2/1 99/3/1 100/4/1
f 101/2/1 102/1/1 103/4/1 104/3/1
f 105/2/1 106/1/1 107/4/1 108/3/1
f 109/2/1 110/1/1 111/4/1 112/3/1
f 113/4/1 114/3/1 115/2/1 116/1/1
f 117/4/1 118/3/1 119/2/1 120/1/1
f 121/1/1 122/2/1 123/3/1 124/4/1
f 125/4/1 126/3/1 127/2/1 128/1/1
f 129/1/1 130/2/1 131/3/1 132/4/1
f 133/4/1 134/3/1 135/2/1 136/1/1
f 137/4/1 138/3/1 139/2/1 140/1/1
f 141/3/1 142/4/1 143/1/1 144/2/1
f 145/4/1 146/3/1 147/2/1 148/1/1
f 149/3/1 150/4/1 151/1/1 152/2/1
f 153/4/1 154/3/1 155/2/1 156/1/1
f 157/3/1 158/4/1 159/1/1 160/2/1
f 161/4/1 162/3/1 163/2/1 164/1/1
f 165/3/1 166/4/1 167/1/1 168/2/1
f 169/4/1 170/3/1 171/2/1 172/1/1
f 173/3/1 174/4/1 175/1/1 176/2/1
f 177/4/1 178/3/1 179/2/1 180/1/1
f 181/3/1 182/4/1 183/1/1 184/2/1
f 185/4/1 186/3/1 187/2/1 188/1/1
f 189/3/1 190/4/1 191/1/1 192/2/1
f 193/4/1 194/3/1 195/2/1 196/1/1
f 197/3/1 198/4/1 199/1/1 200/2/1
f 201/4/1 202/3/1 203/2/1 204/1/1
f 205/3/1 206/4/1 207/1/1 208/2/1
f 209/4/1 210/3/1 211/2/1 212/1/1
f 213/3/1 214/4/1 215/1/1 216/2/1
f 217/4/1 218/3/1 219/2/1 220/1/1
f 221/3/1 222/4/1 223/1/1 224/2/1
f 225/4/1 226/3/1 227/2/1 228/1/1
f 229/3/1 230/4/1 231/1/1 232/2/1
f 233/4/1 234/3/1 235/2/1 236/1/1
f 237/3/1 238/4/1 239/1/1 240/2/1
f 241/4/1 242/3/1 243/2/1 244/1/1
f 245/3/1 246/4/1 247/1/1 248/2/1

