# Tiled2Unity generated file. Do not modify by hand.
# Wavefront file for 'Crolls_Castle1_mesh_0011.obj'

# Vertices (Count = 180)
v -1664 -336 0
v -1680 -336 0
v -1680 -320 0
v -1664 -320 0
v -1664 -352 0
v -1680 -352 0
v -1680 -336 0
v -1664 -336 0
v -1616 -368 0
v -1632 -368 0
v -1632 -352 0
v -1616 -352 0
v -1664 -368 0
v -1680 -368 0
v -1680 -352 0
v -1664 -352 0
v -1664 -384 0
v -1680 -384 0
v -1680 -368 0
v -1664 -368 0
v -1760 -384 0
v -1776 -384 0
v -1776 -368 0
v -1760 -368 0
v -1776 -384 0
v -1792 -384 0
v -1792 -368 0
v -1776 -368 0
v -1856 -384 0
v -1872 -384 0
v -1872 -368 0
v -1856 -368 0
v -1872 -384 0
v -1888 -384 0
v -1888 -368 0
v -1872 -368 0
v -1952 -384 0
v -1968 -384 0
v -1968 -368 0
v -1952 -368 0
v -1968 -384 0
v -1984 -384 0
v -1984 -368 0
v -1968 -368 0
v -2048 -384 0
v -2064 -384 0
v -2064 -368 0
v -2048 -368 0
v -2064 -384 0
v -2080 -384 0
v -2080 -368 0
v -2064 -368 0
v -2096 -384 0
v -2112 -384 0
v -2112 -368 0
v -2096 -368 0
v -2112 -384 0
v -2128 -384 0
v -2128 -368 0
v -2112 -368 0
v -2144 -384 0
v -2160 -384 0
v -2160 -368 0
v -2144 -368 0
v -2160 -384 0
v -2176 -384 0
v -2176 -368 0
v -2160 -368 0
v -2240 -384 0
v -2256 -384 0
v -2256 -368 0
v -2240 -368 0
v -2256 -384 0
v -2272 -384 0
v -2272 -368 0
v -2256 -368 0
v -2336 -384 0
v -2352 -384 0
v -2352 -368 0
v -2336 -368 0
v -2352 -384 0
v -2368 -384 0
v -2368 -368 0
v -2352 -368 0
v -2432 -384 0
v -2448 -384 0
v -2448 -368 0
v -2432 -368 0
v -2448 -384 0
v -2464 -384 0
v -2464 -368 0
v -2448 -368 0
v -1664 -400 0
v -1680 -400 0
v -1680 -384 0
v -1664 -384 0
v -1760 -400 0
v -1776 -400 0
v -1776 -384 0
v -1760 -384 0
v -1776 -400 0
v -1792 -400 0
v -1792 -384 0
v -1776 -384 0
v -1856 -400 0
v -1872 -400 0
v -1872 -384 0
v -1856 -384 0
v -1872 -400 0
v -1888 -400 0
v -1888 -384 0
v -1872 -384 0
v -1952 -400 0
v -1968 -400 0
v -1968 -384 0
v -1952 -384 0
v -1968 -400 0
v -1984 -400 0
v -1984 -384 0
v -1968 -384 0
v -2048 -400 0
v -2064 -400 0
v -2064 -384 0
v -2048 -384 0
v -2064 -400 0
v -2080 -400 0
v -2080 -384 0
v -2064 -384 0
v -2096 -400 0
v -2112 -400 0
v -2112 -384 0
v -2096 -384 0
v -2112 -400 0
v -2128 -400 0
v -2128 -384 0
v -2112 -384 0
v -2144 -400 0
v -2160 -400 0
v -2160 -384 0
v -2144 -384 0
v -2160 -400 0
v -2176 -400 0
v -2176 -384 0
v -2160 -384 0
v -2240 -400 0
v -2256 -400 0
v -2256 -384 0
v -2240 -384 0
v -2256 -400 0
v -2272 -400 0
v -2272 -384 0
v -2256 -384 0
v -2336 -400 0
v -2352 -400 0
v -2352 -384 0
v -2336 -384 0
v -2352 -400 0
v -2368 -400 0
v -2368 -384 0
v -2352 -384 0
v -2432 -400 0
v -2448 -400 0
v -2448 -384 0
v -2432 -384 0
v -2448 -400 0
v -2464 -400 0
v -2464 -384 0
v -2448 -384 0
v -1664 -416 0
v -1680 -416 0
v -1680 -400 0
v -1664 -400 0
v -1664 -432 0
v -1680 -432 0
v -1680 -416 0
v -1664 -416 0
v -1664 -448 0
v -1680 -448 0
v -1680 -432 0
v -1664 -432 0

# Texture cooridinates (Count = 26)
vt 0.21875 0.6979166
vt 0.21875 0.6875
vt 0.2265625 0.6875
vt 0.2265625 0.6979166
vt 0.2109375 0.6979166
vt 0.2109375 0.6875
vt 0.703125 0.7604167
vt 0.6953125 0.7604167
vt 0.6953125 0.7708333
vt 0.703125 0.7708333
vt 0.6875 0.7604167
vt 0.6875 0.7708333
vt 0.359375 0.7395834
vt 0.3671875 0.7395834
vt 0.3671875 0.75
vt 0.359375 0.75
vt 0.375 0.7395834
vt 0.375 0.75
vt 0.703125 0.75
vt 0.6953125 0.75
vt 0.6875 0.75
vt 0.359375 0.7291666
vt 0.3671875 0.7291666
vt 0.375 0.7291666
vt 0.203125 0.6979166
vt 0.203125 0.6875

# Normal
vn 0 0 -1

# Mesh description
g Crolls_Castle1_mesh_0011

# Faces
f 1/1/1 2/2/1 3/3/1 4/4/1
f 5/1/1 6/2/1 7/3/1 8/4/1
f 9/1/1 10/2/1 11/3/1 12/4/1
f 13/5/1 14/6/1 15/2/1 16/1/1
f 17/1/1 18/2/1 19/3/1 20/4/1
f 21/7/1 22/8/1 23/9/1 24/10/1
f 25/8/1 26/11/1 27/12/1 28/9/1
f 29/7/1 30/8/1 31/9/1 32/10/1
f 33/8/1 34/11/1 35/12/1 36/9/1
f 37/7/1 38/8/1 39/9/1 40/10/1
f 41/8/1 42/11/1 43/12/1 44/9/1
f 45/7/1 46/8/1 47/9/1 48/10/1
f 49/8/1 50/11/1 51/12/1 52/9/1
f 53/13/1 54/14/1 55/15/1 56/16/1
f 57/14/1 58/17/1 59/18/1 60/15/1
f 61/11/1 62/8/1 63/9/1 64/12/1
f 65/8/1 66/7/1 67/10/1 68/9/1
f 69/11/1 70/8/1 71/9/1 72/12/1
f 73/8/1 74/7/1 75/10/1 76/9/1
f 77/11/1 78/8/1 79/9/1 80/12/1
f 81/8/1 82/7/1 83/10/1 84/9/1
f 85/11/1 86/8/1 87/9/1 88/12/1
f 89/8/1 90/7/1 91/10/1 92/9/1
f 93/1/1 94/2/1 95/3/1 96/4/1
f 97/19/1 98/20/1 99/8/1 100/7/1
f 101/20/1 102/21/1 103/11/1 104/8/1
f 105/19/1 106/20/1 107/8/1 108/7/1
f 109/20/1 110/21/1 111/11/1 112/8/1
f 113/19/1 114/20/1 115/8/1 116/7/1
f 117/20/1 118/21/1 119/11/1 120/8/1
f 121/19/1 122/20/1 123/8/1 124/7/1
f 125/20/1 126/21/1 127/11/1 128/8/1
f 129/22/1 130/23/1 131/14/1 132/13/1
f 133/23/1 134/24/1 135/17/1 136/14/1
f 137/21/1 138/20/1 139/8/1 140/11/1
f 141/20/1 142/19/1 143/7/1 144/8/1
f 145/21/1 146/20/1 147/8/1 148/11/1
f 149/20/1 150/19/1 151/7/1 152/8/1
f 153/21/1 154/20/1 155/8/1 156/11/1
f 157/20/1 158/19/1 159/7/1 160/8/1
f 161/21/1 162/20/1 163/8/1 164/11/1
f 165/20/1 166/19/1 167/7/1 168/8/1
f 169/1/1 170/2/1 171/3/1 172/4/1
f 173/5/1 174/6/1 175/2/1 176/1/1
f 177/25/1 178/26/1 179/6/1 180/5/1

