# Tiled2Unity generated file. Do not modify by hand.
# Wavefront file for 'Crolls_Castle1_mesh_0016.obj'

# Vertices (Count = 80)
v -1664 -336 0
v -1680 -336 0
v -1680 -320 0
v -1664 -320 0
v -1664 -352 0
v -1680 -352 0
v -1680 -336 0
v -1664 -336 0
v -1664 -368 0
v -1680 -368 0
v -1680 -352 0
v -1664 -352 0
v -1664 -384 0
v -1680 -384 0
v -1680 -368 0
v -1664 -368 0
v -1664 -400 0
v -1680 -400 0
v -1680 -384 0
v -1664 -384 0
v -1664 -416 0
v -1680 -416 0
v -1680 -400 0
v -1664 -400 0
v -1664 -432 0
v -1680 -432 0
v -1680 -416 0
v -1664 -416 0
v -3040 -432 0
v -3056 -432 0
v -3056 -416 0
v -3040 -416 0
v -3056 -432 0
v -3072 -432 0
v -3072 -416 0
v -3056 -416 0
v -1664 -448 0
v -1680 -448 0
v -1680 -432 0
v -1664 -432 0
v -3040 -448 0
v -3056 -448 0
v -3056 -432 0
v -3040 -432 0
v -3056 -448 0
v -3072 -448 0
v -3072 -432 0
v -3056 -432 0
v -3040 -464 0
v -3056 -464 0
v -3056 -448 0
v -3040 -448 0
v -3056 -464 0
v -3072 -464 0
v -3072 -448 0
v -3056 -448 0
v -3040 -480 0
v -3056 -480 0
v -3056 -464 0
v -3040 -464 0
v -3056 -480 0
v -3072 -480 0
v -3072 -464 0
v -3056 -464 0
v -3040 -496 0
v -3056 -496 0
v -3056 -480 0
v -3040 -480 0
v -3056 -496 0
v -3072 -496 0
v -3072 -480 0
v -3056 -480 0
v -3040 -512 0
v -3056 -512 0
v -3056 -496 0
v -3040 -496 0
v -3056 -512 0
v -3072 -512 0
v -3072 -496 0
v -3056 -496 0

# Texture cooridinates (Count = 29)
vt 0.21875 0.6979166
vt 0.21875 0.6875
vt 0.2265625 0.6875
vt 0.2265625 0.6979166
vt 0.2109375 0.6979166
vt 0.2109375 0.6875
vt 0.7578125 0.75
vt 0.7578125 0.7604167
vt 0.75 0.7604167
vt 0.75 0.75
vt 0.7578125 0.7708333
vt 0.75 0.7708333
vt 0.203125 0.6979166
vt 0.203125 0.6875
vt 0.765625 0.75
vt 0.765625 0.7604167
vt 0.765625 0.7708333
vt 0.7734375 0.75
vt 0.7734375 0.7604167
vt 0.7734375 0.7708333
vt 0.78125 0.75
vt 0.78125 0.7604167
vt 0.78125 0.7708333
vt 0.7890625 0.75
vt 0.7890625 0.7604167
vt 0.7890625 0.7708333
vt 0.796875 0.75
vt 0.796875 0.7604167
vt 0.796875 0.7708333

# Normal
vn 0 0 -1

# Mesh description
g Crolls_Castle1_mesh_0016

# Faces
f 1/1/1 2/2/1 3/3/1 4/4/1
f 5/1/1 6/2/1 7/3/1 8/4/1
f 9/5/1 10/6/1 11/2/1 12/1/1
f 13/1/1 14/2/1 15/3/1 16/4/1
f 17/1/1 18/2/1 19/3/1 20/4/1
f 21/1/1 22/2/1 23/3/1 24/4/1
f 25/5/1 26/6/1 27/2/1 28/1/1
f 29/7/1 30/8/1 31/9/1 32/10/1
f 33/8/1 34/11/1 35/12/1 36/9/1
f 37/13/1 38/14/1 39/6/1 40/5/1
f 41/15/1 42/16/1 43/8/1 44/7/1
f 45/16/1 46/17/1 47/11/1 48/8/1
f 49/18/1 50/19/1 51/16/1 52/15/1
f 53/19/1 54/20/1 55/17/1 56/16/1
f 57/21/1 58/22/1 59/19/1 60/18/1
f 61/22/1 62/23/1 63/20/1 64/19/1
f 65/24/1 66/25/1 67/22/1 68/21/1
f 69/25/1 70/26/1 71/23/1 72/22/1
f 73/27/1 74/28/1 75/25/1 76/24/1
f 77/28/1 78/29/1 79/26/1 80/25/1

