# Tiled2Unity generated file. Do not modify by hand.
# Wavefront file for 'Tutorial_Fight_mesh_0009.obj'

# Vertices (Count = 24)
v -368 -224 0
v -384 -224 0
v -384 -208 0
v -368 -208 0
v -368 -240 0
v -384 -240 0
v -384 -224 0
v -368 -224 0
v -368 -256 0
v -384 -256 0
v -384 -240 0
v -368 -240 0
v -368 -272 0
v -384 -272 0
v -384 -256 0
v -368 -256 0
v -368 -288 0
v -384 -288 0
v -384 -272 0
v -368 -272 0
v -368 -304 0
v -384 -304 0
v -384 -288 0
v -368 -288 0

# Texture cooridinates (Count = 14)
vt 0.2020202 0.8814815
vt 0.2424242 0.8814815
vt 0.2424242 0.9209877
vt 0.2020202 0.9209877
vt 0.2020202 0.8419753
vt 0.2424242 0.8419753
vt 0.2020202 0.8024691
vt 0.2424242 0.8024691
vt 0.2020202 0.7629629
vt 0.2424242 0.7629629
vt 0.2020202 0.7234568
vt 0.2424242 0.7234568
vt 0.2020202 0.6839506
vt 0.2424242 0.6839506

# Normal
vn 0 0 -1

# Mesh description
g Tutorial_Fight_mesh_0009

# Faces
f 1/1/1 2/2/1 3/3/1 4/4/1
f 5/5/1 6/6/1 7/2/1 8/1/1
f 9/7/1 10/8/1 11/6/1 12/5/1
f 13/9/1 14/10/1 15/8/1 16/7/1
f 17/11/1 18/12/1 19/10/1 20/9/1
f 21/13/1 22/14/1 23/12/1 24/11/1

