# Tiled2Unity generated file. Do not modify by hand.
# Wavefront file for 'Tutorial_Fight_mesh_0007.obj'

# Vertices (Count = 84)
v -752 -544 0
v -768 -544 0
v -768 -528 0
v -752 -528 0
v -768 -544 0
v -784 -544 0
v -784 -528 0
v -768 -528 0
v -784 -544 0
v -800 -544 0
v -800 -528 0
v -784 -528 0
v -752 -560 0
v -768 -560 0
v -768 -544 0
v -752 -544 0
v -768 -560 0
v -784 -560 0
v -784 -544 0
v -768 -544 0
v -784 -560 0
v -800 -560 0
v -800 -544 0
v -784 -544 0
v -752 -576 0
v -768 -576 0
v -768 -560 0
v -752 -560 0
v -768 -576 0
v -784 -576 0
v -784 -560 0
v -768 -560 0
v -784 -576 0
v -800 -576 0
v -800 -560 0
v -784 -560 0
v -752 -592 0
v -768 -592 0
v -768 -576 0
v -752 -576 0
v -768 -592 0
v -784 -592 0
v -784 -576 0
v -768 -576 0
v -784 -592 0
v -800 -592 0
v -800 -576 0
v -784 -576 0
v -752 -608 0
v -768 -608 0
v -768 -592 0
v -752 -592 0
v -768 -608 0
v -784 -608 0
v -784 -592 0
v -768 -592 0
v -784 -608 0
v -800 -608 0
v -800 -592 0
v -784 -592 0
v -752 -624 0
v -768 -624 0
v -768 -608 0
v -752 -608 0
v -768 -624 0
v -784 -624 0
v -784 -608 0
v -768 -608 0
v -784 -624 0
v -800 -624 0
v -800 -608 0
v -784 -608 0
v -752 -640 0
v -768 -640 0
v -768 -624 0
v -752 -624 0
v -768 -640 0
v -784 -640 0
v -784 -624 0
v -768 -624 0
v -784 -640 0
v -800 -640 0
v -800 -624 0
v -784 -624 0

# Texture cooridinates (Count = 32)
vt 0.8671875 0.625
vt 0.8671875 0.6354166
vt 0.875 0.6354166
vt 0.875 0.625
vt 0.8671875 0.6458334
vt 0.875 0.6458334
vt 0.859375 0.625
vt 0.859375 0.6354166
vt 0.859375 0.6458334
vt 0.8515625 0.625
vt 0.8515625 0.6354166
vt 0.8515625 0.6458334
vt 0.3671875 0.75
vt 0.3671875 0.7604167
vt 0.359375 0.7604167
vt 0.359375 0.75
vt 0.3671875 0.7708333
vt 0.359375 0.7708333
vt 0.84375 0.6354166
vt 0.84375 0.6458334
vt 0.375 0.75
vt 0.375 0.7604167
vt 0.375 0.7708333
vt 0.8359375 0.6354166
vt 0.8359375 0.6458334
vt 0.828125 0.625
vt 0.828125 0.6354166
vt 0.8359375 0.625
vt 0.828125 0.6458334
vt 0.8203125 0.625
vt 0.8203125 0.6354166
vt 0.8203125 0.6458334

# Normal
vn 0 0 -1

# Mesh description
g Tutorial_Fight_mesh_0007

# Faces
f 1/1/1 2/2/1 3/3/1 4/4/1
f 5/1/1 6/2/1 7/3/1 8/4/1
f 9/2/1 10/5/1 11/6/1 12/3/1
f 13/7/1 14/8/1 15/2/1 16/1/1
f 17/7/1 18/8/1 19/2/1 20/1/1
f 21/8/1 22/9/1 23/5/1 24/2/1
f 25/10/1 26/11/1 27/8/1 28/7/1
f 29/10/1 30/11/1 31/8/1 32/7/1
f 33/11/1 34/12/1 35/9/1 36/8/1
f 37/13/1 38/14/1 39/15/1 40/16/1
f 41/14/1 42/17/1 43/18/1 44/15/1
f 45/19/1 46/20/1 47/12/1 48/11/1
f 49/21/1 50/22/1 51/14/1 52/13/1
f 53/22/1 54/23/1 55/17/1 56/14/1
f 57/24/1 58/25/1 59/20/1 60/19/1
f 61/26/1 62/27/1 63/24/1 64/28/1
f 65/26/1 66/27/1 67/24/1 68/28/1
f 69/27/1 70/29/1 71/25/1 72/24/1
f 73/30/1 74/31/1 75/27/1 76/26/1
f 77/30/1 78/31/1 79/27/1 80/26/1
f 81/31/1 82/32/1 83/29/1 84/27/1

