# Tiled2Unity generated file. Do not modify by hand.
# Wavefront file for 'Tutorial_Fight_mesh_0003.obj'

# Vertices (Count = 280)
v 0 -240 0
v -16 -240 0
v -16 -224 0
v 0 -224 0
v -16 -240 0
v -32 -240 0
v -32 -224 0
v -16 -224 0
v -32 -240 0
v -48 -240 0
v -48 -224 0
v -32 -224 0
v 0 -256 0
v -16 -256 0
v -16 -240 0
v 0 -240 0
v -16 -256 0
v -32 -256 0
v -32 -240 0
v -16 -240 0
v -32 -256 0
v -48 -256 0
v -48 -240 0
v -32 -240 0
v 0 -272 0
v -16 -272 0
v -16 -256 0
v 0 -256 0
v -16 -272 0
v -32 -272 0
v -32 -256 0
v -16 -256 0
v -32 -272 0
v -48 -272 0
v -48 -256 0
v -32 -256 0
v 0 -288 0
v -16 -288 0
v -16 -272 0
v 0 -272 0
v -16 -288 0
v -32 -288 0
v -32 -272 0
v -16 -272 0
v -32 -288 0
v -48 -288 0
v -48 -272 0
v -32 -272 0
v 0 -304 0
v -16 -304 0
v -16 -288 0
v 0 -288 0
v -16 -304 0
v -32 -304 0
v -32 -288 0
v -16 -288 0
v -32 -304 0
v -48 -304 0
v -48 -288 0
v -32 -288 0
v 0 -320 0
v -16 -320 0
v -16 -304 0
v 0 -304 0
v -16 -320 0
v -32 -320 0
v -32 -304 0
v -16 -304 0
v -32 -320 0
v -48 -320 0
v -48 -304 0
v -32 -304 0
v 0 -336 0
v -16 -336 0
v -16 -320 0
v 0 -320 0
v -16 -336 0
v -32 -336 0
v -32 -320 0
v -16 -320 0
v -32 -336 0
v -48 -336 0
v -48 -320 0
v -32 -320 0
v 0 -416 0
v -16 -416 0
v -16 -400 0
v 0 -400 0
v -16 -416 0
v -32 -416 0
v -32 -400 0
v -16 -400 0
v -32 -416 0
v -48 -416 0
v -48 -400 0
v -32 -400 0
v 0 -432 0
v -16 -432 0
v -16 -416 0
v 0 -416 0
v -16 -432 0
v -32 -432 0
v -32 -416 0
v -16 -416 0
v -32 -432 0
v -48 -432 0
v -48 -416 0
v -32 -416 0
v 0 -448 0
v -16 -448 0
v -16 -432 0
v 0 -432 0
v -16 -448 0
v -32 -448 0
v -32 -432 0
v -16 -432 0
v -32 -448 0
v -48 -448 0
v -48 -432 0
v -32 -432 0
v 0 -464 0
v -16 -464 0
v -16 -448 0
v 0 -448 0
v -16 -464 0
v -32 -464 0
v -32 -448 0
v -16 -448 0
v -32 -464 0
v -48 -464 0
v -48 -448 0
v -32 -448 0
v 0 -480 0
v -16 -480 0
v -16 -464 0
v 0 -464 0
v -16 -480 0
v -32 -480 0
v -32 -464 0
v -16 -464 0
v -32 -480 0
v -48 -480 0
v -48 -464 0
v -32 -464 0
v -48 -480 0
v -64 -480 0
v -64 -464 0
v -48 -464 0
v 0 -496 0
v -16 -496 0
v -16 -480 0
v 0 -480 0
v -16 -496 0
v -32 -496 0
v -32 -480 0
v -16 -480 0
v -32 -496 0
v -48 -496 0
v -48 -480 0
v -32 -480 0
v -48 -496 0
v -64 -496 0
v -64 -480 0
v -48 -480 0
v -64 -496 0
v -80 -496 0
v -80 -480 0
v -64 -480 0
v 0 -512 0
v -16 -512 0
v -16 -496 0
v 0 -496 0
v -16 -512 0
v -32 -512 0
v -32 -496 0
v -16 -496 0
v -32 -512 0
v -48 -512 0
v -48 -496 0
v -32 -496 0
v -48 -512 0
v -64 -512 0
v -64 -496 0
v -48 -496 0
v -64 -512 0
v -80 -512 0
v -80 -496 0
v -64 -496 0
v 0 -528 0
v -16 -528 0
v -16 -512 0
v 0 -512 0
v -16 -528 0
v -32 -528 0
v -32 -512 0
v -16 -512 0
v -32 -528 0
v -48 -528 0
v -48 -512 0
v -32 -512 0
v -48 -528 0
v -64 -528 0
v -64 -512 0
v -48 -512 0
v -64 -528 0
v -80 -528 0
v -80 -512 0
v -64 -512 0
v 0 -544 0
v -16 -544 0
v -16 -528 0
v 0 -528 0
v -16 -544 0
v -32 -544 0
v -32 -528 0
v -16 -528 0
v -32 -544 0
v -48 -544 0
v -48 -528 0
v -32 -528 0
v -48 -544 0
v -64 -544 0
v -64 -528 0
v -48 -528 0
v -64 -544 0
v -80 -544 0
v -80 -528 0
v -64 -528 0
v 0 -560 0
v -16 -560 0
v -16 -544 0
v 0 -544 0
v -16 -560 0
v -32 -560 0
v -32 -544 0
v -16 -544 0
v -32 -560 0
v -48 -560 0
v -48 -544 0
v -32 -544 0
v -48 -560 0
v -64 -560 0
v -64 -544 0
v -48 -544 0
v -64 -560 0
v -80 -560 0
v -80 -544 0
v -64 -544 0
v 0 -576 0
v -16 -576 0
v -16 -560 0
v 0 -560 0
v -16 -576 0
v -32 -576 0
v -32 -560 0
v -16 -560 0
v -32 -576 0
v -48 -576 0
v -48 -560 0
v -32 -560 0
v -48 -576 0
v -64 -576 0
v -64 -560 0
v -48 -560 0
v -64 -576 0
v -80 -576 0
v -80 -560 0
v -64 -560 0
v -16 -592 0
v -32 -592 0
v -32 -576 0
v -16 -576 0
v -32 -592 0
v -48 -592 0
v -48 -576 0
v -32 -576 0
v -48 -592 0
v -64 -592 0
v -64 -576 0
v -48 -576 0

# Texture cooridinates (Count = 64)
vt 0.15625 0.6979166
vt 0.1640625 0.6979166
vt 0.1640625 0.7083334
vt 0.15625 0.7083334
vt 0.1796875 0.6979166
vt 0.1875 0.6979166
vt 0.1875 0.7083334
vt 0.1796875 0.7083334
vt 0.15625 0.6875
vt 0.1640625 0.6875
vt 0.171875 0.6875
vt 0.1796875 0.6875
vt 0.171875 0.6979166
vt 0.1328125 0.6979166
vt 0.140625 0.6979166
vt 0.140625 0.7083334
vt 0.1328125 0.7083334
vt 0.1484375 0.6875
vt 0.1484375 0.6979166
vt 0.1328125 0.6875
vt 0.140625 0.6875
vt 0.1484375 0.7083334
vt 0.2109375 0.6875
vt 0.21875 0.6875
vt 0.21875 0.6979166
vt 0.2109375 0.6979166
vt 0.2265625 0.6875
vt 0.234375 0.6875
vt 0.234375 0.6979166
vt 0.2265625 0.6979166
vt 0.203125 0.5833334
vt 0.2109375 0.5833334
vt 0.2109375 0.59375
vt 0.203125 0.59375
vt 0.171875 0.5833334
vt 0.1796875 0.5833334
vt 0.1796875 0.59375
vt 0.171875 0.59375
vt 0.296875 0.59375
vt 0.3046875 0.59375
vt 0.3046875 0.6041666
vt 0.296875 0.6041666
vt 0.21875 0.59375
vt 0.2265625 0.59375
vt 0.2265625 0.6041666
vt 0.21875 0.6041666
vt 0.3125 0.59375
vt 0.3125 0.6041666
vt 0.3203125 0.5833334
vt 0.328125 0.5833334
vt 0.328125 0.59375
vt 0.3203125 0.59375
vt 0.21875 0.5833334
vt 0.296875 0.5833334
vt 0.3046875 0.5833334
vt 0.3203125 0.6041666
vt 0.2265625 0.5833334
vt 0.3125 0.5833334
vt 0.265625 0.59375
vt 0.2734375 0.59375
vt 0.2734375 0.6041666
vt 0.265625 0.6041666
vt 0.28125 0.59375
vt 0.28125 0.6041666

# Normal
vn 0 0 -1

# Mesh description
g Tutorial_Fight_mesh_0003

# Faces
f 1/1/1 2/2/1 3/3/1 4/4/1
f 5/1/1 6/2/1 7/3/1 8/4/1
f 9/5/1 10/6/1 11/7/1 12/8/1
f 13/9/1 14/10/1 15/2/1 16/1/1
f 17/11/1 18/12/1 19/5/1 20/13/1
f 21/14/1 22/15/1 23/16/1 24/17/1
f 25/9/1 26/10/1 27/2/1 28/1/1
f 29/18/1 30/9/1 31/1/1 32/19/1
f 33/14/1 34/15/1 35/16/1 36/17/1
f 37/18/1 38/9/1 39/1/1 40/19/1
f 41/9/1 42/10/1 43/2/1 44/1/1
f 45/20/1 46/21/1 47/15/1 48/14/1
f 49/15/1 50/19/1 51/22/1 52/16/1
f 53/9/1 54/10/1 55/2/1 56/1/1
f 57/14/1 58/15/1 59/16/1 60/17/1
f 61/9/1 62/10/1 63/2/1 64/1/1
f 65/15/1 66/19/1 67/22/1 68/16/1
f 69/20/1 70/21/1 71/15/1 72/14/1
f 73/23/1 74/24/1 75/25/1 76/26/1
f 77/23/1 78/24/1 79/25/1 80/26/1
f 81/27/1 82/28/1 83/29/1 84/30/1
f 85/31/1 86/32/1 87/33/1 88/34/1
f 89/31/1 90/32/1 91/33/1 92/34/1
f 93/35/1 94/36/1 95/37/1 96/38/1
f 97/39/1 98/40/1 99/41/1 100/42/1
f 101/39/1 102/40/1 103/41/1 104/42/1
f 105/43/1 106/44/1 107/45/1 108/46/1
f 109/40/1 110/47/1 111/48/1 112/41/1
f 113/39/1 114/40/1 115/41/1 116/42/1
f 117/43/1 118/44/1 119/45/1 120/46/1
f 121/39/1 122/40/1 123/41/1 124/42/1
f 125/39/1 126/40/1 127/41/1 128/42/1
f 129/43/1 130/44/1 131/45/1 132/46/1
f 133/49/1 134/50/1 135/51/1 136/52/1
f 137/39/1 138/40/1 139/41/1 140/42/1
f 141/31/1 142/32/1 143/33/1 144/34/1
f 145/32/1 146/53/1 147/43/1 148/33/1
f 149/39/1 150/40/1 151/41/1 152/42/1
f 153/40/1 154/47/1 155/48/1 156/41/1
f 157/49/1 158/50/1 159/51/1 160/52/1
f 161/39/1 162/40/1 163/41/1 164/42/1
f 165/43/1 166/44/1 167/45/1 168/46/1
f 169/54/1 170/55/1 171/40/1 172/39/1
f 173/39/1 174/40/1 175/41/1 176/42/1
f 177/39/1 178/40/1 179/41/1 180/42/1
f 181/47/1 182/52/1 183/56/1 184/48/1
f 185/53/1 186/57/1 187/44/1 188/43/1
f 189/39/1 190/40/1 191/41/1 192/42/1
f 193/40/1 194/47/1 195/48/1 196/41/1
f 197/39/1 198/40/1 199/41/1 200/42/1
f 201/58/1 202/49/1 203/52/1 204/47/1
f 205/43/1 206/44/1 207/45/1 208/46/1
f 209/39/1 210/40/1 211/41/1 212/42/1
f 213/49/1 214/50/1 215/51/1 216/52/1
f 217/39/1 218/40/1 219/41/1 220/42/1
f 221/39/1 222/40/1 223/41/1 224/42/1
f 225/53/1 226/57/1 227/44/1 228/43/1
f 229/39/1 230/40/1 231/41/1 232/42/1
f 233/54/1 234/55/1 235/40/1 236/39/1
f 237/39/1 238/40/1 239/41/1 240/42/1
f 241/54/1 242/55/1 243/40/1 244/39/1
f 245/43/1 246/44/1 247/45/1 248/46/1
f 249/39/1 250/40/1 251/41/1 252/42/1
f 253/39/1 254/40/1 255/41/1 256/42/1
f 257/54/1 258/55/1 259/40/1 260/39/1
f 261/54/1 262/55/1 263/40/1 264/39/1
f 265/53/1 266/57/1 267/44/1 268/43/1
f 269/59/1 270/60/1 271/61/1 272/62/1
f 273/59/1 274/60/1 275/61/1 276/62/1
f 277/60/1 278/63/1 279/64/1 280/61/1

