# Tiled2Unity generated file. Do not modify by hand.
# Wavefront file for 'Tutorial_Fight_mesh_0009.obj'

# Vertices (Count = 64)
v -64 -352 0
v -80 -352 0
v -80 -336 0
v -64 -336 0
v -80 -352 0
v -96 -352 0
v -96 -336 0
v -80 -336 0
v -64 -368 0
v -80 -368 0
v -80 -352 0
v -64 -352 0
v -80 -368 0
v -96 -368 0
v -96 -352 0
v -80 -352 0
v -352 -496 0
v -368 -496 0
v -368 -480 0
v -352 -480 0
v -368 -496 0
v -384 -496 0
v -384 -480 0
v -368 -480 0
v -352 -512 0
v -368 -512 0
v -368 -496 0
v -352 -496 0
v -368 -512 0
v -384 -512 0
v -384 -496 0
v -368 -496 0
v -752 -560 0
v -768 -560 0
v -768 -544 0
v -752 -544 0
v -768 -560 0
v -784 -560 0
v -784 -544 0
v -768 -544 0
v -752 -576 0
v -768 -576 0
v -768 -560 0
v -752 -560 0
v -768 -576 0
v -784 -576 0
v -784 -560 0
v -768 -560 0
v -752 -624 0
v -768 -624 0
v -768 -608 0
v -752 -608 0
v -768 -624 0
v -784 -624 0
v -784 -608 0
v -768 -608 0
v -752 -640 0
v -768 -640 0
v -768 -624 0
v -752 -624 0
v -768 -640 0
v -784 -640 0
v -784 -624 0
v -768 -624 0

# Texture cooridinates (Count = 27)
vt 0.65625 0.5729166
vt 0.6640625 0.5729166
vt 0.6640625 0.5833334
vt 0.65625 0.5833334
vt 0.671875 0.5729166
vt 0.671875 0.5833334
vt 0.65625 0.5625
vt 0.6640625 0.5625
vt 0.671875 0.5625
vt 0.203125 0.96875
vt 0.2109375 0.96875
vt 0.2109375 0.9791667
vt 0.203125 0.9791667
vt 0.21875 0.96875
vt 0.21875 0.9791667
vt 0.203125 0.9583333
vt 0.2109375 0.9583333
vt 0.21875 0.9583333
vt 0.9453125 0.6041666
vt 0.9453125 0.6145834
vt 0.953125 0.6145834
vt 0.953125 0.6041666
vt 0.9453125 0.625
vt 0.953125 0.625
vt 0.9375 0.6041666
vt 0.9375 0.6145834
vt 0.9375 0.625

# Normal
vn 0 0 -1

# Mesh description
g Tutorial_Fight_mesh_0009

# Faces
f 1/1/1 2/2/1 3/3/1 4/4/1
f 5/2/1 6/5/1 7/6/1 8/3/1
f 9/7/1 10/8/1 11/2/1 12/1/1
f 13/8/1 14/9/1 15/5/1 16/2/1
f 17/10/1 18/11/1 19/12/1 20/13/1
f 21/11/1 22/14/1 23/15/1 24/12/1
f 25/16/1 26/17/1 27/11/1 28/10/1
f 29/17/1 30/18/1 31/14/1 32/11/1
f 33/19/1 34/20/1 35/21/1 36/22/1
f 37/20/1 38/23/1 39/24/1 40/21/1
f 41/25/1 42/26/1 43/20/1 44/19/1
f 45/26/1 46/27/1 47/23/1 48/20/1
f 49/19/1 50/20/1 51/26/1 52/25/1
f 53/20/1 54/23/1 55/27/1 56/26/1
f 57/22/1 58/21/1 59/20/1 60/19/1
f 61/21/1 62/24/1 63/23/1 64/20/1

