# Tiled2Unity generated file. Do not modify by hand.
# Wavefront file for 'Level-X_mesh_0004.obj'

# Vertices (Count = 208)
v 0 -64 0
v -16 -64 0
v -16 -48 0
v 0 -48 0
v -16 -64 0
v -32 -64 0
v -32 -48 0
v -16 -48 0
v 0 -80 0
v -16 -80 0
v -16 -64 0
v 0 -64 0
v -16 -80 0
v -32 -80 0
v -32 -64 0
v -16 -64 0
v -32 -112 0
v -48 -112 0
v -48 -96 0
v -32 -96 0
v -48 -112 0
v -64 -112 0
v -64 -96 0
v -48 -96 0
v -96 -112 0
v -112 -112 0
v -112 -96 0
v -96 -96 0
v -112 -112 0
v -128 -112 0
v -128 -96 0
v -112 -96 0
v -160 -112 0
v -176 -112 0
v -176 -96 0
v -160 -96 0
v -176 -112 0
v -192 -112 0
v -192 -96 0
v -176 -96 0
v -224 -112 0
v -240 -112 0
v -240 -96 0
v -224 -96 0
v -240 -112 0
v -256 -112 0
v -256 -96 0
v -240 -96 0
v -288 -112 0
v -304 -112 0
v -304 -96 0
v -288 -96 0
v -304 -112 0
v -320 -112 0
v -320 -96 0
v -304 -96 0
v -352 -112 0
v -368 -112 0
v -368 -96 0
v -352 -96 0
v -368 -112 0
v -384 -112 0
v -384 -96 0
v -368 -96 0
v -416 -112 0
v -432 -112 0
v -432 -96 0
v -416 -96 0
v -432 -112 0
v -448 -112 0
v -448 -96 0
v -432 -96 0
v -32 -128 0
v -48 -128 0
v -48 -112 0
v -32 -112 0
v -48 -128 0
v -64 -128 0
v -64 -112 0
v -48 -112 0
v -96 -128 0
v -112 -128 0
v -112 -112 0
v -96 -112 0
v -112 -128 0
v -128 -128 0
v -128 -112 0
v -112 -112 0
v -160 -128 0
v -176 -128 0
v -176 -112 0
v -160 -112 0
v -176 -128 0
v -192 -128 0
v -192 -112 0
v -176 -112 0
v -224 -128 0
v -240 -128 0
v -240 -112 0
v -224 -112 0
v -240 -128 0
v -256 -128 0
v -256 -112 0
v -240 -112 0
v -288 -128 0
v -304 -128 0
v -304 -112 0
v -288 -112 0
v -304 -128 0
v -320 -128 0
v -320 -112 0
v -304 -112 0
v -352 -128 0
v -368 -128 0
v -368 -112 0
v -352 -112 0
v -368 -128 0
v -384 -128 0
v -384 -112 0
v -368 -112 0
v -416 -128 0
v -432 -128 0
v -432 -112 0
v -416 -112 0
v -432 -128 0
v -448 -128 0
v -448 -112 0
v -432 -112 0
v -192 -224 0
v -208 -224 0
v -208 -208 0
v -192 -208 0
v -208 -224 0
v -224 -224 0
v -224 -208 0
v -208 -208 0
v -256 -224 0
v -272 -224 0
v -272 -208 0
v -256 -208 0
v -272 -224 0
v -288 -224 0
v -288 -208 0
v -272 -208 0
v -192 -240 0
v -208 -240 0
v -208 -224 0
v -192 -224 0
v -208 -240 0
v -224 -240 0
v -224 -224 0
v -208 -224 0
v -256 -240 0
v -272 -240 0
v -272 -224 0
v -256 -224 0
v -272 -240 0
v -288 -240 0
v -288 -224 0
v -272 -224 0
v -336 -288 0
v -352 -288 0
v -352 -272 0
v -336 -272 0
v -352 -288 0
v -368 -288 0
v -368 -272 0
v -352 -272 0
v -336 -304 0
v -352 -304 0
v -352 -288 0
v -336 -288 0
v -352 -304 0
v -368 -304 0
v -368 -288 0
v -352 -288 0
v -608 -400 0
v -624 -400 0
v -624 -384 0
v -608 -384 0
v -624 -400 0
v -640 -400 0
v -640 -384 0
v -624 -384 0
v -608 -416 0
v -624 -416 0
v -624 -400 0
v -608 -400 0
v -624 -416 0
v -640 -416 0
v -640 -400 0
v -624 -400 0
v -256 -432 0
v -272 -432 0
v -272 -416 0
v -256 -416 0
v -272 -432 0
v -288 -432 0
v -288 -416 0
v -272 -416 0
v -256 -448 0
v -272 -448 0
v -272 -432 0
v -256 -432 0
v -272 -448 0
v -288 -448 0
v -288 -432 0
v -272 -432 0

# Texture cooridinates (Count = 63)
vt 0.9375 0.07291669
vt 0.9453125 0.07291669
vt 0.9453125 0.08333331
vt 0.9375 0.08333331
vt 0.953125 0.07291669
vt 0.953125 0.08333331
vt 0.9375 0.0625
vt 0.9453125 0.0625
vt 0.953125 0.0625
vt 0.28125 0.6770834
vt 0.2890625 0.6770834
vt 0.2890625 0.6875
vt 0.28125 0.6875
vt 0.296875 0.6770834
vt 0.296875 0.6875
vt 0.84375 0.05208331
vt 0.8515625 0.05208331
vt 0.8515625 0.0625
vt 0.84375 0.0625
vt 0.859375 0.05208331
vt 0.859375 0.0625
vt 0.296875 0.4895833
vt 0.3046875 0.4895833
vt 0.3046875 0.5
vt 0.296875 0.5
vt 0.3125 0.4895833
vt 0.3125 0.5
vt 0.84375 0.04166669
vt 0.8515625 0.04166669
vt 0.859375 0.04166669
vt 0.296875 0.4791667
vt 0.3046875 0.4791667
vt 0.3125 0.4791667
vt 0.328125 0.96875
vt 0.3359375 0.96875
vt 0.3359375 0.9791667
vt 0.328125 0.9791667
vt 0.34375 0.96875
vt 0.34375 0.9791667
vt 0.328125 0.9583333
vt 0.3359375 0.9583333
vt 0.3828125 0.4166667
vt 0.390625 0.4166667
vt 0.390625 0.4270833
vt 0.3828125 0.4270833
vt 0.015625 0.9479167
vt 0.0234375 0.9479167
vt 0.0234375 0.9583333
vt 0.015625 0.9583333
vt 0.03125 0.9479167
vt 0.03125 0.9583333
vt 0.015625 0.9375
vt 0.0234375 0.9375
vt 0.03125 0.9375
vt 0.203125 0.96875
vt 0.2109375 0.96875
vt 0.2109375 0.9791667
vt 0.203125 0.9791667
vt 0.21875 0.96875
vt 0.21875 0.9791667
vt 0.203125 0.9583333
vt 0.2109375 0.9583333
vt 0.21875 0.9583333

# Normal
vn 0 0 -1

# Mesh description
g Level-X_mesh_0004

# Faces
f 1/1/1 2/2/1 3/3/1 4/4/1
f 5/2/1 6/5/1 7/6/1 8/3/1
f 9/7/1 10/8/1 11/2/1 12/1/1
f 13/8/1 14/9/1 15/5/1 16/2/1
f 17/10/1 18/11/1 19/12/1 20/13/1
f 21/11/1 22/14/1 23/15/1 24/12/1
f 25/10/1 26/11/1 27/12/1 28/13/1
f 29/11/1 30/14/1 31/15/1 32/12/1
f 33/10/1 34/11/1 35/12/1 36/13/1
f 37/11/1 38/14/1 39/15/1 40/12/1
f 41/10/1 42/11/1 43/12/1 44/13/1
f 45/11/1 46/14/1 47/15/1 48/12/1
f 49/10/1 50/11/1 51/12/1 52/13/1
f 53/11/1 54/14/1 55/15/1 56/12/1
f 57/12/1 58/11/1 59/10/1 60/13/1
f 61/11/1 62/12/1 63/15/1 64/14/1
f 65/12/1 66/11/1 67/10/1 68/13/1
f 69/11/1 70/12/1 71/13/1 72/10/1
f 73/15/1 74/12/1 75/11/1 76/14/1
f 77/12/1 78/13/1 79/10/1 80/11/1
f 81/15/1 82/12/1 83/11/1 84/14/1
f 85/12/1 86/13/1 87/10/1 88/11/1
f 89/15/1 90/12/1 91/11/1 92/14/1
f 93/12/1 94/13/1 95/10/1 96/11/1
f 97/15/1 98/12/1 99/11/1 100/14/1
f 101/12/1 102/13/1 103/10/1 104/11/1
f 105/15/1 106/12/1 107/11/1 108/14/1
f 109/12/1 110/13/1 111/10/1 112/11/1
f 113/15/1 114/14/1 115/11/1 116/12/1
f 117/10/1 118/13/1 119/12/1 120/11/1
f 121/15/1 122/14/1 123/11/1 124/12/1
f 125/14/1 126/15/1 127/12/1 128/11/1
f 129/16/1 130/17/1 131/18/1 132/19/1
f 133/17/1 134/20/1 135/21/1 136/18/1
f 137/22/1 138/23/1 139/24/1 140/25/1
f 141/23/1 142/26/1 143/27/1 144/24/1
f 145/28/1 146/29/1 147/17/1 148/16/1
f 149/29/1 150/30/1 151/20/1 152/17/1
f 153/31/1 154/32/1 155/23/1 156/22/1
f 157/32/1 158/33/1 159/26/1 160/23/1
f 161/34/1 162/35/1 163/36/1 164/37/1
f 165/35/1 166/38/1 167/39/1 168/36/1
f 169/40/1 170/41/1 171/35/1 172/34/1
f 173/42/1 174/43/1 175/44/1 176/45/1
f 177/46/1 178/47/1 179/48/1 180/49/1
f 181/47/1 182/50/1 183/51/1 184/48/1
f 185/52/1 186/53/1 187/47/1 188/46/1
f 189/53/1 190/54/1 191/50/1 192/47/1
f 193/55/1 194/56/1 195/57/1 196/58/1
f 197/56/1 198/59/1 199/60/1 200/57/1
f 201/61/1 202/62/1 203/56/1 204/55/1
f 205/62/1 206/63/1 207/59/1 208/56/1

