# Tiled2Unity generated file. Do not modify by hand.
# Wavefront file for 'Level-X_mesh_0005.obj'

# Vertices (Count = 16)
v -1040 -160 0
v -1056 -160 0
v -1056 -144 0
v -1040 -144 0
v -1056 -160 0
v -1072 -160 0
v -1072 -144 0
v -1056 -144 0
v -1040 -176 0
v -1056 -176 0
v -1056 -160 0
v -1040 -160 0
v -1056 -176 0
v -1072 -176 0
v -1072 -160 0
v -1056 -160 0

# Texture cooridinates (Count = 9)
vt 0.3125 0.1145833
vt 0.3203125 0.1145833
vt 0.3203125 0.125
vt 0.3125 0.125
vt 0.328125 0.1145833
vt 0.328125 0.125
vt 0.3125 0.1041667
vt 0.3203125 0.1041667
vt 0.328125 0.1041667

# Normal
vn 0 0 -1

# Mesh description
g Level-X_mesh_0005

# Faces
f 1/1/1 2/2/1 3/3/1 4/4/1
f 5/2/1 6/5/1 7/6/1 8/3/1
f 9/7/1 10/8/1 11/2/1 12/1/1
f 13/8/1 14/9/1 15/5/1 16/2/1

