# Tiled2Unity generated file. Do not modify by hand.
# Wavefront file for 'Level-X_mesh_0001.obj'

# Vertices (Count = 8)
v -256 -224 0
v -272 -224 0
v -272 -208 0
v -256 -208 0
v -272 -224 0
v -288 -224 0
v -288 -208 0
v -272 -208 0

# Texture cooridinates (Count = 6)
vt 0.3125 0.5833334
vt 0.3203125 0.5833334
vt 0.3203125 0.59375
vt 0.3125 0.59375
vt 0.3203125 0.6041666
vt 0.3125 0.6041666

# Normal
vn 0 0 -1

# Mesh description
g Level-X_mesh_0001

# Faces
f 1/1/1 2/2/1 3/3/1 4/4/1
f 5/4/1 6/3/1 7/5/1 8/6/1

